<svg xmlns="http://www.w3.org/2000/svg" viewBox="0 0 125.02 125.05"><defs><style>.cls-1{fill:#2992cf;}.cls-2{fill:#3b94ca;}.cls-3{fill:#f9fafb;}.cls-4{fill:#f4f8f9;}.cls-5{fill:#ecf4f7;}.cls-6{fill:#f5c419;}.cls-7{fill:#199248;}.cls-8{fill:#284081;}.cls-9{fill:#f4f7f0;}.cls-10{fill:#28407f;}.cls-11{fill:#bdc0a9;}.cls-12{fill:#d7dee9;}.cls-13{fill:#2b3e69;}.cls-14{fill:#627689;}.cls-15{fill:#3f4335;}</style></defs><g id="Layer_2" data-name="Layer 2"><g id="Layer_1-2" data-name="Layer 1"><path class="cls-1" d="M11.23,97.29a7.44,7.44,0,0,1,.2-.78c.4-1.15.4-1.15-.78-1.25-1.71-.14-1.71-.14-1.07-1.7.45-1.09.45-1.09-.74-1.33a7.12,7.12,0,0,1-1.64-.3c.34-.71.64-1.42,1-2.11.21-.39.12-.51-.29-.57-.61-.09-1.21-.24-1.82-.34-.41-.06-.49-.22-.28-.58.32-.53.59-1.08.91-1.61.21-.36.1-.53-.27-.62-.58-.14-1.14-.31-1.72-.43s-.54-.26-.27-.65.62-1,1-1.49.13-.58-.26-.7c-.57-.17-1.13-.35-1.7-.51-.37-.11-.47-.28-.21-.62s.63-.93,1-1.37.39-.64-.22-.81-1-.43-1.58-.61-.44-.34-.15-.67.68-.9,1.07-1.31.26-.61-.21-.78c-.28-.1-.53-.26-.8-.38C1.08,75.2,1.08,75.2,2,74.16s1-1.09-.31-1.8-1.25-.68-.23-1.67c.33-.32.67-.62,1.1-1-.75-.46-1.39-.86-2-1.24-.35-.21-.47-.34-.08-.68C1,67.25,2,66.82,2,66.18c0-.46-1.09-.89-1.72-1.3-.4-.26-.37-.46,0-.7s.51-.39.77-.59c1.1-.84,1.1-.84,0-1.69S-.19,61,1,60.13l1.15-.82C1.57,58.76,1,58.24.4,57.75c-.34-.28-.3-.44.06-.64.56-.32,1.09-.68,1.65-1,.29-.17.31-.32.06-.55s-.69-.68-1-1c-.73-.71-.73-.7.14-1.16.36-.19.69-.43,1.06-.58.61-.24.55-.51.13-.9s-.77-.82-1.16-1.23-.24-.42.13-.57c.57-.23,1.11-.54,1.68-.78.41-.17.48-.34.17-.69-.49-.56-.94-1.16-1.46-1.81.7-.29,1.33-.59,2-.8s.67-.44.25-.91-.51-.76-.82-1.09c-.55-.58-.25-.77.34-.91.42-.1.82-.26,1.23-.38s.8-.36.34-.91c-.32-.39-.53-.88-.82-1.29s-.31-.61.24-.69a5.56,5.56,0,0,0,.7-.19c1.52-.43,1.52-.43.76-1.79a3.94,3.94,0,0,1-.58-1.18c.67-.14,1.32-.28,2-.4s.86-.24.46-.86c-.26-.41-.41-.87-.65-1.29s-.29-.72.36-.76,1.11-.21,1.67-.26.49-.26.33-.62c-.24-.51-.42-1.05-.67-1.55s-.18-.65.36-.66c.37,0,.75-.07,1.12-.1,1.21-.08,1.21-.07.78-1.23-.6-1.64-.6-1.64,1.14-1.69,1.16,0,1.16,0,.85-1.18-.45-1.69-.45-1.69,1.3-1.61h.64c.37,0,.48-.11.38-.47-.15-.6-.24-1.22-.41-1.81-.13-.44,0-.59.43-.52s.81.08,1.21.1c1.36.06,1.05.14.94-1.09-.05-.55-.5-1.23-.12-1.58s1,.05,1.54.11l.47.08c.58.12.82-.06.62-.67a2.67,2.67,0,0,1-.1-.64C20,16.42,20,16.42,21.54,16.8l.47.11c.52.12.91.1.72-.63a3.44,3.44,0,0,1,0-.72c-.07-1.48-.07-1.48,1.4-1.07s1.36.38,1.36-1V12a7.19,7.19,0,0,1,2.07.58c.62.23.77,0,.79-.53s.05-1.08.05-1.62.11-.55.53-.37,1.06.38,1.57.62.77.07.79-.51.12-1.07.14-1.61.18-.5.55-.34l2.17,1a15.28,15.28,0,0,0,.36-2.05c.05-.79.37-.72.89-.43s.91.46,1.35.72.58.06.67-.34c.12-.57.25-1.15.36-1.73.08-.4.25-.48.61-.26.52.33,1.07.61,1.58,1s.51.13.61-.24c.17-.59.37-1.18.51-1.78.11-.43.29-.45.61-.22.51.35,1,.68,1.53,1.05.34.24.52.16.64-.22.2-.58.45-1.15.61-1.74s.32-.41.61-.18c.46.36,1,.69,1.41,1.08s.54.33.72-.17c.25-.71.58-1.38.9-2.13.64.53,1.24,1,1.78,1.51.35.32.52.23.69-.15a13.79,13.79,0,0,0,.7-1.45c.23-.65.49-.54.87-.14s.83.77,1.23,1.17.41.26.59-.1c.28-.57.63-1.12.93-1.69.18-.34.34-.35.59-.07.42.46.86.89,1.26,1.36s.5.29.73-.09.66-1,.94-1.49S58.77,0,59,.35c.38.49.82.93,1.18,1.43.26.35.43.31.65,0,.35-.48.73-.93,1-1.43s.43-.49.72,0,.64.8.9,1.24c.37.61.66.5,1,0s.67-.84,1-1.26.39-.31.59,0,.58.84.82,1.29.6.76,1.07.13c.3-.41.71-.73,1-1.13s.47-.3.67.09.6,1,.83,1.47.49.46.83.08.78-.74,1.14-1.13.52-.38.72.11.49,1,.71,1.45.43.63.85.18S75.61,2.18,76,1.8s.54-.35.72.14.48,1,.65,1.56.41.5.78.19.92-.66,1.34-1,.52-.19.66.2c.2.58.43,1.15.62,1.74.11.33.23.44.56.19s.9-.59,1.32-.92.8-.46.93.3c.09.5.33,1,.44,1.46s.36.49.73.25,1-.61,1.51-.92c.31-.2.48-.16.55.23s.27,1,.36,1.57c.12.73.45.71,1,.38s.85-.45,1.27-.69.57-.27.63.27.24,1.1.29,1.66.23.66.7.42,1.08-.5,1.6-.77.53-.09.57.32c.06.62.18,1.23.22,1.84,0,.44.2.49.56.34s1-.38,1.5-.6.74-.2.76.41.09,1.13.1,1.69.15.53.54.39c.55-.2,1.12-.36,1.68-.56s.65-.1.63.43,0,1.18,0,1.78c0,.36.13.48.49.38.62-.16,1.25-.28,1.87-.47.35-.11.42,0,.41.33,0,.65,0,1.29-.06,1.94,0,.34.08.49.46.4.58-.13,1.16-.22,1.74-.34s.65,0,.55.52-.1,1.18-.19,1.76c-.07.41.1.47.43.42.59-.09,1.17-.16,1.76-.26.41-.07.69-.1.53.5s-.09,1-.23,1.42c-.2.7,0,.94.69.81.5-.08,1-.06,1.52-.14s.54.11.44.52c-.15.57-.21,1.17-.39,1.73s.07.57.45.56c.59,0,1.18,0,1.77-.09s.58.12.42.56-.27,1-.44,1.46-.18.92.59.86,1.33,0,2.09,0a20.79,20.79,0,0,1-.7,2.07c-.28.62,0,.76.51.8s1,.07,1.52.09.66.13.42.63-.43,1-.67,1.56-.14.67.43.7a7.82,7.82,0,0,1,2.19.38l-1,2c-.2.38-.19.6.34.71a9.76,9.76,0,0,1,2.2.52c-.39.71-.73,1.38-1.11,2-.23.37-.14.51.25.59s1,.28,1.56.4.81.29.36.84a8.45,8.45,0,0,0-.6,1c-.58.88-.58.89.44,1.23.55.19,1.42.18,1.57.62s-.57.95-.88,1.44c-.17.27-.36.53-.6.87.7.27,1.36.55,2,.79.46.17.73.35.26.81a5.12,5.12,0,0,0-.5.63c-.92,1.12-.92,1.12.43,1.73s1.33.6.32,1.71l-1,1c.74.39,1.39.76,2.07,1.08.43.2.43.38.09.69s-.82.85-1.27,1.24-.29.52.12.74,1.06.64,1.59.94c.3.17.33.29.06.52-.48.4-.9.85-1.39,1.23s-.34.55.08.8.82.6,1.27.84.46.57,0,.89-.86.72-1.33,1-.29.37,0,.58c.5.37,1,.77,1.47,1.12s.46.42,0,.69-1,.75-1.58,1.1c-.29.19-.29.32,0,.53.48.39.91.85,1.41,1.21s.37.52-.09.76-1,.62-1.51.92c-.31.19-.34.36-.06.62.47.43.91.91,1.39,1.34.28.26.27.4-.08.57-.56.27-1.08.62-1.63.88s-.45.39-.14.7.76.83,1.16,1.22.45.57-.13.77-.91.46-1.38.64-.69.41-.24.89.88,1.07,1.37,1.68c-.78.32-1.49.64-2.22.9-.4.15-.42.3-.17.62s.68,1,1,1.43.25.56-.24.69-1,.37-1.53.51-.64.29-.3.75.58,1,.93,1.41.15.58-.28.69-1.08.33-1.64.43-.52.31-.28.71.58,1,.87,1.53c.19.33.19.52-.27.58s-1.1.27-1.65.34-.64.34-.36.82.49,1,.76,1.51.05.47-.29.53a10.4,10.4,0,0,0-2.34.42c.28.68.55,1.34.84,2,.18.41.19.64-.37.65s-1.12.15-1.68.16-.56.26-.4.66.37,1,.56,1.51.08.72-.47.71-1.08,0-1.62,0-.59.12-.44.56a13.84,13.84,0,0,0,.42,1.47c.31.68,0,.77-.57.74s-1.08,0-1.61,0-.52.12-.41.52c.18.62.29,1.26.46,1.88.11.38,0,.49-.38.45-.64-.07-1.28-.12-1.92-.2-.4,0-.54.06-.45.47.12.61.16,1.23.33,1.82s-.13.56-.51.5l-1.59-.26c-.45-.08-.73,0-.6.56s.12,1.12.22,1.67-.14.6-.57.5-1-.18-1.5-.31-.8-.08-.71.58,0,1.13.07,1.69c0,.38-.11.47-.47.38-.75-.2-1.51-.38-2.26-.56-.43.61-.15,1.29-.18,1.94,0,.49-.18.69-.66.63s-.94-.23-1.4-.38-.6-.08-.6.4-.08,1.13-.09,1.69-.16.63-.63.43-1.11-.42-1.65-.65c-.36-.16-.52-.11-.56.32,0,.64-.18,1.28-.23,1.92,0,.4-.16.44-.5.27-.52-.26-1.08-.48-1.6-.74s-.67-.09-.75.4a8.1,8.1,0,0,1-.46,2.17c-.64-.34-1.26-.64-1.87-1-.44-.25-.7-.25-.79.34s-.21,1-.32,1.49-.27.72-.78.36-1-.59-1.45-.88c-.33-.21-.51-.18-.61.24-.14.57-.38,1.12-.5,1.7s-.35.48-.7.24c-.51-.35-1-.67-1.54-1-.3-.23-.4-.13-.5.16-.19.56-.41,1.11-.58,1.67s-.27.75-.78.28-1-.71-1.41-1.08c-.29-.23-.44-.18-.57.15-.22.55-.53,1.07-.7,1.63s-.43.52-.8.17-.86-.73-1.27-1.11-.48-.26-.65.14-.52,1.06-.76,1.59c-.17.38-.34.52-.69.16s-.9-.84-1.34-1.28c-.27-.27-.45-.2-.62.09-.29.52-.6,1-.86,1.55s-.39.59-.76.11-.71-.73-1-1.14-.68-.4-1,.13-.58.84-.82,1.29-.46.37-.73,0-.68-.77-1-1.19c-.38-.6-.66-.44-1,.05s-.59.77-.84,1.18-.49.5-.8,0-.68-.89-1-1.36-.45-.39-.72,0-.79,1-1.16,1.44c-.24.33-.39.26-.57,0-.34-.52-.7-1-1-1.55-.23-.38-.41-.43-.71-.08s-.85.9-1.25,1.37c-.25.3-.4.27-.58,0-.27-.49-.59-1-.83-1.47s-.56-.55-.95-.1-.78.74-1.14,1.13-.45.3-.62-.09-.53-1-.75-1.52-.42-.63-.84-.19-.61.53-.91.8c-.79.7-.79.7-1.21-.32-.7-1.67-.7-1.67-2.16-.57-.25.19-.52.37-.87.62-.27-.74-.56-1.41-.78-2.11-.16-.53-.36-.55-.77-.23s-1,.66-1.46,1c-.32.24-.45.13-.55-.2-.17-.62-.39-1.23-.54-1.86-.1-.38-.25-.41-.56-.21s-.95.51-1.37.84c-.65.5-.85.23-1-.44-.07-.5-.25-1-.34-1.49s-.22-.43-.54-.26-.9.48-1.35.72-.9.26-1-.46c-.06-.51-.18-1-.26-1.51s-.19-.45-.53-.27c-.5.26-1,.43-1.54.71s-.73.08-.78-.44-.14-1.07-.17-1.61-.18-.54-.59-.35c-.57.26-1.15.45-1.72.69-.34.14-.5.05-.52-.32,0-.53-.11-1.07-.08-1.6.06-.79-.26-.83-.86-.57s-1,.29-1.45.48-.58,0-.57-.42,0-1,0-1.53-.08-.88-.75-.61c-.47.19-1,.25-1.48.41s-.62,0-.57-.48.07-1.07.12-1.61.08-.81-.6-.56a14.63,14.63,0,0,1-1.65.36c-.44.1-.66,0-.56-.5s.12-1.18.23-1.75-.08-.55-.46-.49l-1.91.29c-.35.06-.48,0-.4-.43.12-.61.18-1.23.3-1.83.08-.42,0-.6-.47-.51s-1.23.12-1.85.18c-.35,0-.48,0-.37-.44.17-.6.23-1.22.4-1.81s-.07-.63-.51-.6-1.07.07-1.6.12-.73-.06-.51-.61a11.83,11.83,0,0,0,.37-1.15c.55-.22.28-.69.25-1s-.41-.24-.66-.25-.8,0-1.2,0S11.17,97.81,11.23,97.29Zm11.15,5.84a12.35,12.35,0,0,1,2.65,0c.56.13.69-.07.77-.55a5.43,5.43,0,0,1,1.56-2.93c1.32-1.34,2.57-2.74,3.84-4.12a1.59,1.59,0,0,0,.46-1.9,5.23,5.23,0,0,0-2.38-2.36,1.38,1.38,0,0,0,.2.5c1.06,1.87,1,2.63-.52,4.21-1.25,1.32-2.53,2.62-3.75,4a27.31,27.31,0,0,0-2.82,3.16l0,0Zm40.07-2.88A37.66,37.66,0,1,0,24.83,62.18,37.77,37.77,0,0,0,62.45,100.25ZM26.63,17.66a7.07,7.07,0,0,1-.75,2.89c-.31.52-.08.54.35.6A4.17,4.17,0,0,1,29,22.59c.87,1,1.82,2,2.74,2.94,1.76,1.88,1.74,1.52-.19,3.16l-.18.16c-.19.16-.33.25-.48-.06a2.89,2.89,0,0,0-1.81-1.25c-1.23-.49-2.65-.53-3.73-1.62.14,2,.27,3.78.42,5.59a1.22,1.22,0,0,0,1.35,1.27c.43,0,.86,0,1.29,0s1.08,0,1.61,0c.19,0,.4.1.36.35s-.19.23-.37.24l-.56,0A4.14,4.14,0,0,0,25.67,35a1.25,1.25,0,0,1-2,.17c-.64-.49-1.27-1-1.9-1.49l-6-4.68a15.19,15.19,0,0,1,.17,2.86c0,.33.21.34.43.31a2.73,2.73,0,0,1,2.07.71c1.66,1.29,3.26,2.64,4.9,3.94a.84.84,0,0,1,.22,1.31,22.49,22.49,0,0,0-2,3.68c-.09.19-.12.46-.43.32-1.62-.72-3.62-.67-4.74-2.3,0,1.7,0,3.42,0,5.13a1.36,1.36,0,0,0,1,1.45l2.32.68c1.41.4,2.78.84,2.78,2.74,1.26-1.2,1.31-2.45.13-3.54a1.06,1.06,0,0,1-.27-1.4,39.52,39.52,0,0,1,2.26-4.45,20.94,20.94,0,0,1,3.76-5A2.78,2.78,0,0,1,30,34.65c.46,0,1.07.4,1.32,0s.08-1,.09-1.5a4,4,0,0,0,0-.49,1.53,1.53,0,0,1,.63-1.46c1-.79,1.82-1.69,2.82-2.41A2.6,2.6,0,0,0,36,26.36a1.42,1.42,0,0,1-2-.43c-1.1-1.25-2.22-2.48-3.33-3.72C29.4,20.74,28.07,19.27,26.63,17.66ZM104.2,60.43a2.5,2.5,0,0,0,1.38,3.47,1.23,1.23,0,0,1,.76,1.38,37.43,37.43,0,0,1-2,10.64c-.43,1.15-.77,2.22.07,3.34.39.5-.11.5-.42.48a1.55,1.55,0,0,0-1.6,1.07c-.53,1.15-1.17,2.24-1.69,3.39a2.3,2.3,0,0,1-1.2,1.12c-.44.22-1.23.07-1.3.5s.39,1,.61,1.45l.09.13c.77,1.53,1.35,1.82,3,1.48a6.72,6.72,0,0,1,3.38-.13c-.26-.51-.43-.9-.65-1.26a1.81,1.81,0,0,0-2.28-1l-1.83.31a.82.82,0,0,1-.86-.3c.36-.15.69-.31,1-.42a3.65,3.65,0,0,0,2.64-2.34,12.17,12.17,0,0,1,1-2,.94.94,0,0,1,.81-.59c.46,0,.45.4.58.67.35.75.68,1.52,1,2.28a2.16,2.16,0,0,0,1.88,1.28,1.08,1.08,0,0,1,0-1.24c.34-.81.66-1.64,1-2.47a1.66,1.66,0,0,0,.15-1.25c-.37-.94-.79-1.85-1.18-2.78l-.2-.1c-.11,1.51-1.13,1.77-2.27,1.86-.56,0-.75-.15-.55-.71.32-.88.62-1.77.92-2.66a1.42,1.42,0,0,1,2-1.07l6.31,1.67c1,.26,1.93.5,3.06.79a8.51,8.51,0,0,1-.93-2.94,2.77,2.77,0,0,1-2.19.52c-2.18-.58-4.34-1.2-6.51-1.81-.59-.16-.74-.55-.58-1.11a14.36,14.36,0,0,0,.52-3.74c0-.76.22-1.11,1-1.15,1.56-.1,3.08-1.07,4.79,0-.92-1.72-1.74-3.25-2.56-4.8A1.29,1.29,0,0,0,110,61.7c-.61.09-1.22.23-1.83.32C106.57,62.26,105.07,62.32,104.2,60.43ZM7.2,76.54A6.6,6.6,0,0,1,9.42,78.2c.32.44.51.39.83,0a4.25,4.25,0,0,1,1.92-1.54c1.91-.53,3.84-1,5.76-1.51a.87.87,0,0,1,1.22.68,63.19,63.19,0,0,0,2.27,6.45c.09.22.27.46,0,.67-1.38,1.21-2.13,3.18-4.38,3.49l5.36,2.16a1.25,1.25,0,0,0,1.4-.32,15.91,15.91,0,0,0,1.49-1.47A2.61,2.61,0,0,1,28,86.06c.28,0,.51.28.83.2A2.37,2.37,0,0,0,26,84.38a1.31,1.31,0,0,1-1.6-.9c-.47-1.06-1-2.06-1.53-3.11-2.53-5.36-3.22-11.1-3.43-16.93-.05-1.52,0-1.52-1.46-.95-1.73.69-1.73.69-1.21,2.43,0,0,0,0,0,.07a1.81,1.81,0,0,1-1.28,2.33,4.53,4.53,0,0,1-3.13-.4,2,2,0,0,0-1.38-.3c-.82.25-1.62.54-2.59.87l2.82,1.42c.16-.19,0-.31,0-.44s-.29-.47,0-.66.51,0,.75.1a6.64,6.64,0,0,1,1.42.92c1.27,1.08,2.62,1.72,4.23.63a8,8,0,0,1,.39,2A2,2,0,0,1,16.36,74l-5,1.39Zm68.24-64,.29.06c.25.05.6,0,.69.28s-.25.45-.43.63a8.89,8.89,0,0,1-1.72,1.18,3.6,3.6,0,0,0-1.82,2.15c-.08.34.28.83-.1,1s-.72-.1-1.09-.17-.85-.12-1.26-.23a1.68,1.68,0,0,1-1.22-1.82c.39-3.22.77-6.44,1.16-9.75A7,7,0,0,1,67.37,7.3c-.45.1-.53.28-.3.7a4.73,4.73,0,0,1,.68,3.08c-.27,1.64-.47,3.3-.69,5-.09.66-.4,1-1.13.91a27.83,27.83,0,0,0-6.12,0,1.29,1.29,0,0,1-1.63-1,15.43,15.43,0,0,0-.84-1.74A3,3,0,0,1,57,11.51c-.15.05-.21.06-.24.09l-2.79,2.91c-1.71,1.8-1.69,1.43-.65,3.8.58,1.33.84,2.56-.37,3.7a2.42,2.42,0,0,0,2.87-2c.08-.38.15-.63.6-.7a38,38,0,0,1,6-.6,38,38,0,0,1,12.11,2c1.44.47,2.86,1,4.35,1.53,0-.57,0-1.06,0-1.54a.87.87,0,0,0-.65-1,12.54,12.54,0,0,1-1.84-.81,1.8,1.8,0,0,1-1-2.35,3.56,3.56,0,0,1,1.07-1.87c1.42-1.1,1.26-2.63,1.3-4.29l-2,1.72C75.65,12.17,75.46,12.26,75.44,12.52ZM42,101.68c1,2.67,1.09,2.87,3.33,3.46a.67.67,0,0,1,.52.63c.18.89.41,1.78.59,2.67.26,1.33.26,1.34,1.41.6.17-.1.61-.13.38-.44a5.27,5.27,0,0,1-.57-1.83c-.06-.23-.32-.57,0-.68a.84.84,0,0,1,.85.33,1.14,1.14,0,0,1,.15.46c.19.78.36,1.57.55,2.35,0,.17.06.5.23.44a5.55,5.55,0,0,0,1.33-.73c.31-.22-.1-.4-.15-.61a4.35,4.35,0,0,1-.28-1.38c.86-.07,1.18.38,1.24,1.13a6.24,6.24,0,0,0,.23,1c0,.15.1.38.3.28a5.14,5.14,0,0,0,1.29-.79c.22-.22-.28-.46-.28-.76a.56.56,0,0,1,0-.15,2,2,0,0,1,1,.1c1.23.33,1.59.94,1.28,2.19-.53,2.11-1.07,4.21-1.59,6.32-.26,1.07-.5,2.15-.78,3.34a17.05,17.05,0,0,1,2.53-1.53c.37-.13.41-.27.31-.63a5.87,5.87,0,0,1-.22-3.09c.65-2.49,1.19-5,1.82-7.51.14-.57,0-.75-.54-.81a41.22,41.22,0,0,1-12.48-3.61,2.55,2.55,0,0,1-1.67-2c-.1-.55-.35-.48-.71-.26s-1,.55-1.47.84a1.88,1.88,0,0,0-1.06,2.27c.16,1.32.93,2.56.37,4,2.47-1.3,2.53-1.46,1.69-4A1.46,1.46,0,0,1,42,101.68ZM94.64,28.36c-.81.88-1.51,1.64-2.22,2.39-.25.27,0,.38.13.52a42.71,42.71,0,0,1,8.1,10.78A1.68,1.68,0,0,0,102,43c-.35-1.2.54-1.61,1.3-2,1.89-1,3.81-2,5.71-3l4.16-2.19a6,6,0,0,1-2.84-1.09c-.53-.41-.68-.28-.94.25s-.44,1.49-1.17,1.87c-1.83,1-3.68,1.89-5.52,2.83a.81.81,0,0,1-1.18-.31,7.25,7.25,0,0,0-.47-.75,2.21,2.21,0,0,1-.09-3.2,1,1,0,0,0-.07-1.33c-.41-.53-.78-1.09-1.17-1.64-1.62-2.27-1.61-1.75-.29-4.23C100,27,100,27,98.7,26.78c-.19,0-.53-.32-.58.1A9,9,0,0,1,97,29.36a2.07,2.07,0,0,0,.2,2.33c.6.76,1.1,1.59,1.71,2.34.38.47.39.84-.06,1.23-.8-.95-1.54-1.95-2.4-2.82A6,6,0,0,1,94.64,28.36Zm1.78,81a10.43,10.43,0,0,1,.67-2.81c.21-.41.17-.61-.34-.67a3.49,3.49,0,0,1-2.4-1.49c-1.12-1.47-2.26-2.93-3.4-4.39a1,1,0,0,1-.27-.57c0-.57,2.14-2.24,2.63-2,1.65.94,3.75,1.17,4.87,3.07.23-1.72.44-3.34.66-5a1.37,1.37,0,0,0-.61-1.6c-.79-.43-1.45-1-2.21-1.47a2.78,2.78,0,0,1-1.7-3,2.44,2.44,0,0,0-.86,3.5c.14.27.4.48,0,.8-1.75,1.34-3.23,3-5,4.27a2.87,2.87,0,0,0-.88,1.13c-.12.24-.09.41.24.4a2.48,2.48,0,0,1,2.1,1.28C92,103.63,94.16,106.4,96.42,109.32Zm-7.17,4.36a4.83,4.83,0,0,1,1.31-2c.55-.37.34-.56,0-.84a5.45,5.45,0,0,1-1.92-2.22c-1.06-2.58-2.22-5.12-3.29-7.7-.23-.55-.42-.53-.87-.27a41.36,41.36,0,0,1-4.31,2.17c-1.71.76-3.47,1.4-5.35,2,1.59,1.35,3.09,2.64,4.61,3.91A3.43,3.43,0,0,1,80.92,111c.61-1.36,1.13-2.71,1.68-4,.39-1,.88-1.88-.42-2.63l.61-.26c1.46-.59,2.06-.34,2.69,1.11s1.42,3.19,2.13,4.78ZM33.45,12.77a9.37,9.37,0,0,1-1.05,3c-.24.37,0,.46.22.6a6.34,6.34,0,0,1,2.3,2.41c1.16,2.21,2.43,4.36,3.61,6.56.27.5.5.49.91.23.77-.48,1.62-.87,2.35-1.4a2.68,2.68,0,0,1,3.54.07c.44.35.51.11.6-.26.16-.65.35-1.29.53-1.94.44-1.64.28-2-1.08-3-.88-.68-2-1.12-2.37-2.46-.19.51-.35.87-.47,1.24a1.9,1.9,0,0,0,.8,2.52c.49.38,1,.76,1.48,1.12a.86.86,0,0,1,.41.84,6.71,6.71,0,0,1-1.12-.36,3,3,0,0,0-3.31.21c-1.3.82-2,.55-2.7-.8C36.58,18.51,35.05,15.71,33.45,12.77ZM85,21.4a10.61,10.61,0,0,0-2.19.75,1,1,0,0,0-.59,1.42c.73,1.79,1.43,3.58,2.18,5.37a1.35,1.35,0,0,0,1.89.86c1.19-.43,2.36-.88,3.52-1.38a1.28,1.28,0,0,0,.54-2.2c-.46-.59-1-1.14-1.47-1.71s-.41-.92.27-1.23,1.1-.44,1.65-.65.77,0,.8.55a16.91,16.91,0,0,0,.19,2,3.4,3.4,0,0,0,3.4,2.28,2.64,2.64,0,0,1-1.16-2.29c-.07-.94-.12-1.88-.16-2.82a3,3,0,0,1,.37-2.07C92,21.14,89.67,22,87.42,23c-1,.41-1.1,1.17-.42,2,.29.36.59.7.9,1,1.38,1.49,1.29,1.76-.64,2.43a.7.7,0,0,1-1.05-.48c-.5-1.27-1-2.53-1.55-3.8C84.07,22.7,84.07,22.7,85,21.4ZM68.23,110.32a8.86,8.86,0,0,0,1.84-1.56c.68-.67.69-1,0-1.68-1.23-1.24-2.46-2.48-3.71-3.71-.88-.87-1.52-.9-2.42,0-1.42,1.39-2.79,2.83-4.21,4.23a1.86,1.86,0,0,0-.36,2.22c.19.47.45.91.68,1.37a4.27,4.27,0,0,1,.81,2.85l1-.89a2,2,0,0,0,.44-2.87c-.25-.47-.52-.93-.8-1.39a1.41,1.41,0,0,1,.21-1.9c.73-.71,1.46-1.43,2.16-2.18.46-.49.83-.43,1.28,0,.93,1,1.9,1.9,2.85,2.85C69.08,108.76,69.08,108.76,68.23,110.32Zm-37.92-.71a9.49,9.49,0,0,1,2.32-.29c.56.1.64-.17.66-.58a5.56,5.56,0,0,1,.88-2.88,2.37,2.37,0,0,0,.33-1.15c.14-1.45.29-2.89.49-4.33,0-.35,0-1,.69-.75.29.1.67.27.67.63s-.44.27-.68.34a.66.66,0,0,0-.47.82c0,.37.38.18.59.16a9.33,9.33,0,0,1,2.08-.2c1,.14,1-.7,1.36-1.18s-.17-.83-.52-1.1c-.73-.55-1.5-1-2.21-1.61-1.52-1.2-1.74-1.16-2.51.67a3.61,3.61,0,0,0-.25.85c-.2,1.33-.43,2.65-.55,4a8.65,8.65,0,0,1-1.91,5.18A14.67,14.67,0,0,0,30.31,109.61ZM104,48.26c0-.21-.06-.42-.11-.63-.37-1.74,0-2.54,1.64-3.27,1.22-.55,2.45-1.08,3.67-1.62l5.63-2.5a9.11,9.11,0,0,1-3.07-1.31c-.59-.48-.82-.26-1.11.27a4.59,4.59,0,0,1-2.42,2.12c-1.51.6-3,1.34-4.48,2a2,2,0,0,0-1.22,1.48C102.19,46.25,103,47.27,104,48.26ZM15.27,52.63a2.71,2.71,0,0,0-2.67,2.66,2.75,2.75,0,0,0,2.65,2.62,2.64,2.64,0,0,0,2.62-2.68A2.58,2.58,0,0,0,15.27,52.63Zm94.34,5A2.62,2.62,0,1,0,107,55,2.62,2.62,0,0,0,109.61,57.65ZM27.13,107.42l1-.16a6.84,6.84,0,0,1,.79-.12c1.23-.08,1.23-.07,1.37-1.28,0-.11,0-.22,0-.33a5,5,0,0,1,2-3.25,1.42,1.42,0,0,0,.71-1.49,5.34,5.34,0,0,0-2.42,1.57C29.43,103.94,28.36,105.61,27.13,107.42ZM44.59,24.74c-.14.31-.28.59-.39.89-.29.73-.15.94.66,1a2.67,2.67,0,0,0,.4,0c.28,0,.71.43.82-.18s.11-1-.48-1.2C45.26,25.11,44.94,24.92,44.59,24.74ZM40.73,108a4.11,4.11,0,0,0-.68.84c-.26.6.3,1,.46,1.55.08.25.43,0,.6-.12.35-.2,1-.33.79-.83A6.28,6.28,0,0,0,40.73,108Zm60.12-26.84c-.14-.32-.28-.66-.45-1s-.42-.51-.69-.25-1,.6-1.22,1.15c0,0,0,0,0,.06a1.65,1.65,0,0,0,2.29.2A.58.58,0,0,0,100.85,81.11Zm-.76,2.28c-.21-.44-.28-1-.71-1.24s-.63.28-.92.47l-.2.15c-.67.53-.66.67.08,1.13a2.85,2.85,0,0,0,1.71-.29A.54.54,0,0,0,100.09,83.39ZM21.25,29.17c0,1,.1,1.1,1.07.86.23-.05.47-.07.71-.1s.3-.05.29-.2a1.36,1.36,0,0,0-.41-1,2.16,2.16,0,0,0-1.45-.25C21.12,28.47,21.34,29,21.25,29.17Zm79.1-3.73c.07.28-.18.75.12.94a.91.91,0,0,0,1.11-.21c.31-.4.62-1,.37-1.44a1.38,1.38,0,0,0-1.34-.3C100.09,24.57,100.34,25,100.35,25.44ZM23.68,26.78c-.61-.06-.61-.06-.69.36-.2,1.09-.07,1.23,1,1.08a.82.82,0,0,0,.23,0c.26-.12.79.2.77-.25s-.16-1-.81-1.14C24.07,26.79,23.9,26.79,23.68,26.78Zm41.39,83.53c-.75,1-.75,1,.36,2.42.17-.13.34-.26.5-.4.87-.72.86-.86-.07-1.47C65.59,110.69,65.33,110.5,65.07,110.31Z"/><path class="cls-2" d="M11.23,97.29c-.06.52.16.73.69.68s.8,0,1.2,0,.63-.11.66.25.3.82-.25,1c.16-1,.16-1-.87-1.05l-1,0C10.77,98.14,10.77,98.14,11.23,97.29Z"/><path class="cls-2" d="M98.75,112.82c.48.06.63-.14.66-.63,0-.65-.25-1.33.18-1.94,0,.69,0,1.39,0,2.09C99.57,113.2,99.57,113.2,98.75,112.82Z"/><path class="cls-3" d="M62.45,100.25a37.66,37.66,0,1,1,37.72-37.4A37.7,37.7,0,0,1,62.45,100.25ZM60.8,50.83a.76.76,0,0,0,0-.15l.18-.17a.79.79,0,0,0,.93-.67h0a.27.27,0,0,0,.34-.28l0,0h.24c.32,0,.65-.15.6-.48s-.4-.16-.62-.17c-.77,0-1.54,0-2.31,0-.26-.13-.17-.39-.21-.6a.31.31,0,0,0-.12-.35.11.11,0,0,1,0-.13l-.08-.19-.06-.32c0-.91,0-.91-.48-.85l-.06.2L59,47l-.07.34-.09.15,0,.17a.31.31,0,0,0-.11.31l0,.16c-.45.12-.26.47-.27.75v0l0,0c-1.78,0-3.57,0-5.35,0-.27,0-.61-.16-.76.24l-.33,0q-.08-.1-.15,0c-1,.13-2,.22-3,.4a14.85,14.85,0,0,0-6.55,2.49,4.89,4.89,0,0,0-2,5.31,10.53,10.53,0,0,0,1.84,3.81,29.87,29.87,0,0,0,5.57,5.55c-.29.39-.08.83-.07,1.22a8.54,8.54,0,0,0,.12,2.62l.19.48.43.49c.28.37.58.71.82,1.1a1.54,1.54,0,0,0,1.6.78c.89-.06,1.78,0,2.66,0,1.91,0,1.91,0,1.91-1.92a38.59,38.59,0,0,1,4.63,2c0,.83.67,1.28,1,1.92a3,3,0,0,0,.91,1.16c1.92,3.29,6.66,3.35,8.83,1.92,1.21-.8,2-.94,2.94.17a23.52,23.52,0,0,0,5.37,0s0,0,0-.07c0-4.46-.08-8.92.07-13.37.08-2.15-.23-4-1.84-5.52-.12-.23-.31-.12-.48-.08-1.6,0-3.21,0-4.82-.07-.54,0-.74.14-.74.72,0,2.22.07,4.45,0,6.67a10.76,10.76,0,0,1-.61,3.6,2.65,2.65,0,0,1-3.35,1.59c0-3.16,0-6.33,0-9.5a8.6,8.6,0,0,0-1.92-5.41c-.14-.18-.22-.56-.6-.3A4.7,4.7,0,0,0,62.26,54c0-.32-.28-.29-.5-.28a.16.16,0,0,1-.15,0c-.13-.42.3-1-.31-1.28h0l-.1-.3-.06-.2c.09-.43.14-.84-.33-1.1ZM33.53,62.76h0c-.07-.36-.35-.18-.51-.17-.9,0-1.8.12-2.71.19s-1.6.1-2.4.11-.36.49-.41.79,0,.58.52.54a5.62,5.62,0,0,1,2,0c-.78.32-1.41.6-2.06.82s-.16.79-.27,1.17.1.33.34.29c1.14-.18,2.3,0,3.43-.29l1.92,0c.24,0,.33,0,.34-.35,0-1,.06-1-.93-.92l-1.2.06c-.12-.06-.37-.09,0-.22.66-.25,1.31-.52,2-.78A1.11,1.11,0,0,0,33.53,62.76Zm62.91,2.09c-.56.12-1.17-.25-1.69.21v.29a1.92,1.92,0,0,0,0,1,3.08,3.08,0,0,0,1.35,0c.92-.1,1.41-.72,1.46-1.79a1.64,1.64,0,0,0-1.3-1.85,21.21,21.21,0,0,0-3.38-.17,1.45,1.45,0,0,0-1.58,1,2.11,2.11,0,0,0,.39,2.32,1.85,1.85,0,0,0,1.73.42c.44-.09.25-.69.28-1.06.06-.86-.64-.38-1-.52s-.55,0-.52-.33.28-.3.5-.29l3.38.17C96.49,64.28,96.58,64.5,96.44,64.85ZM64.53,27.74c-1.15-.39-.71.49-.77,1L63.7,31.1c-.17.39,0,.8-.13,1.19,0,.2.09.58-.27.54s-.22-.38-.21-.61c0-1.31.08-2.63.18-3.94,0-.51-.05-.75-.61-.71s-1-.17-1,.69c0,1.23-.09,2.46-.15,3.7a1.65,1.65,0,0,0,1.81,1.94c1.21,0,1.8-.54,1.83-1.81,0-.43,0-.86,0-1.29a6.59,6.59,0,0,0,0-3.06h-.63ZM75,33l-.16-.16c.14-.57.28-1.14.44-1.7.3-1.09.3-1.07-.77-1.48-.42-.16-.53-.09-.62.35-.24,1.26-.55,2.51-.85,3.76-.42,1.81-.42,1.79,1.31,2.46.42.16.6.1.8-.29.78-1.46,1.61-2.9,2.4-4.36.12-.23.55-.6,0-.71s-1-.89-1.41,0C75.67,31.57,75.31,32.29,75,33ZM41.17,87.83l.16.18a14.09,14.09,0,0,1-.57,1.5c-.35.73.37.78.65,1.08s.44-.12.58-.28c1.07-1.28,2.09-2.6,3.19-3.85.42-.47.11-.6-.16-.85s-.55-.47-.87,0-.76.93-1.15,1.4a7.68,7.68,0,0,1,.66-1.89c.36-.74-.35-.85-.66-1.16s-.48.14-.63.32c-1.06,1.26-2.07,2.54-3.14,3.79-.3.35-.26.5.07.81s.7.45,1-.07A9.67,9.67,0,0,1,41.17,87.83ZM90.69,73.1c-.21,0-.43-.06-.63-.11-.36-.11-.57-.07-.74.34s0,.56.33.72.78.46,1.18.69l-.32.15a5.43,5.43,0,0,1-1-.35c-.52-.29-.67,0-.84.41s-.29.69.31.9c1.26.43,2.5,1,3.75,1.44,1.44.57,1.42.56,2-.87.17-.43.07-.59-.31-.78a6.13,6.13,0,0,1-1.52-.91,1.76,1.76,0,0,1,.84.11c1.52.38,1.5.37,2.05-1.11.16-.43,0-.53-.35-.67-1.57-.6-3.15-1.22-4.7-1.87-.47-.2-.57,0-.73.37-.24.52-.25.87.42,1a4.45,4.45,0,0,1,.88.37C91.14,73.19,90.89,73.05,90.69,73.1ZM60.51,94.81l0,0c0-.88,0-1.77,0-2.64,0-.56-.16-.66-.67-.67s-.77.07-.76.68c0,1.34,0,2.69-.06,4s-.07,1.43,1.36,1.48c.59,0,.73-.24.78-.72s.16-1.11.24-1.66a1.34,1.34,0,0,1,.24.78c.12,1.6.12,1.58,1.71,1.66.42,0,.58,0,.58-.49,0-1.69,0-3.39.13-5.08,0-.76-.47-.52-.84-.6s-.57.16-.59.58a9.4,9.4,0,0,1-.17,2.42,18.2,18.2,0,0,1-.31-2.32c0-.39,0-.73-.59-.74s-.52.3-.58.66C60.81,93.05,60.65,93.93,60.51,94.81Zm9-1,.52-.58c.11-.13.24-.27.39-.1.36.38.89.6.65,1.36a1.56,1.56,0,0,0,1.8,2,1.88,1.88,0,0,0,1.72-1.36,1.79,1.79,0,0,0-1.07-2.07,1.48,1.48,0,0,0,.56-1.29,1.84,1.84,0,0,0-1-1.6,1.79,1.79,0,0,0-1.87.35c-.24.16-.43.61-.68.48-.71-.35-1.18.19-1.84.36a2.88,2.88,0,0,0,.65.61c.11.1.3.26.15.4C69,92.89,69.43,93.3,69.54,93.84ZM67.48,31.69a9.69,9.69,0,0,1,.34,2.23c.11.72.71.44,1.07.57s.41-.33.45-.57c.31-1.63.57-3.27.91-4.89.1-.47-.06-.59-.43-.62s-.77-.29-.89.38c-.08.5,0,1.08-.51,1.52-.07-.63-.15-1.21-.21-1.79s-.69-.44-1.07-.6c-.2-.09-.33,0-.37.27-.31,1.77-.64,3.53-1,5.29-.1.57.33.51.65.57s.62.16.67-.37S67.33,32.47,67.48,31.69Zm-32,15.2,0-.13,2,.5c.68.18.65-.49.9-.8s-.13-.48-.34-.61c-1.43-.86-2.88-1.67-4.29-2.55-.43-.26-.62-.13-.76.25s-.62.54,0,.87a4.08,4.08,0,0,1,1.53,1.1l-2-.47c-.69-.16-.65.5-.9.82s.17.43.34.53c1.43.86,2.89,1.67,4.29,2.55.48.3.61.1.83-.26s.39-.66-.17-.92A17.47,17.47,0,0,1,35.49,46.89ZM50,32.49l-.13.07L48.54,30.9c-.41-.5-.77,0-1.13.1s-.2.41-.11.64c.63,1.59,1.27,3.18,1.88,4.78.18.5.45.33.74.19s.75-.11.5-.67-.44-1.13-.66-1.7a7.94,7.94,0,0,1,1.36,1.49c.44.57.82,0,1.21-.08s.22-.38.12-.63c-.63-1.59-1.29-3.18-1.87-4.79-.19-.5-.44-.35-.71-.2s-.84.07-.53.7S49.81,31.9,50,32.49ZM84.21,82a1.58,1.58,0,0,0,.62,1.25C85.9,84.12,87,85,88,85.91c.71.62.72-.27,1-.47s.34-.49,0-.79c-1-.8-2-1.64-3-2.49-.19-.17-.65-.32-.38-.65s.47.11.65.26c1,.84,2.1,1.67,3.1,2.56.43.37.65.15.78-.18s1-.5.25-1.06c-1-.82-2.08-1.69-3.11-2.54a1.47,1.47,0,0,0-1.77-.31A2.44,2.44,0,0,0,84.21,82Zm-7.3,9.25a1.8,1.8,0,0,0,.53,2.1,1.3,1.3,0,0,0,1.7.06c.45-.25.88-.51,1.34-.73s.39-.34.19-.68c-.86-1.48-1.73-3-2.53-4.47-.35-.66-.66-.2-1,0s-.85.22-.43.83.58,1,.86,1.53c.09.16.3.33.07.48s-.39,0-.5-.23c-.32-.54-.61-1.08-.93-1.6-.08-.13-.08-.36-.39-.29-.85.22-1.07.67-.63,1.44.17.3.38.59.53.9A1,1,0,0,0,76.91,91.23ZM97,69.35a1.49,1.49,0,0,0-1.08-1.6,17.92,17.92,0,0,0-3.48-.64c-1-.08-1.65.49-1.81,1.61a1.58,1.58,0,0,0,1.32,2c1,.2,1.95.37,2.93.51A1.7,1.7,0,0,0,97,69.35ZM90.32,55A1.77,1.77,0,0,0,92.7,56.9c.91-.23,1.81-.48,2.71-.76A1.63,1.63,0,0,0,96.6,54c-.3-1.14-1-1.65-2-1.42s-2.17.58-3.24.92A1.37,1.37,0,0,0,90.32,55ZM51.46,92.7a2,2,0,0,0-1.16,1.82c0,.76.51,1.07,1.12,1.3l1.51.53c.27.1.41.05.51-.27.55-1.68,1.12-3.34,1.68-5,.06-.17.16-.41-.07-.5a3.25,3.25,0,0,0-1.23-.32c-.23,0-.23.48-.33.75L53,92.37c0,.15-.1.35-.28.33s-.28-.25-.21-.45a11.26,11.26,0,0,1,.5-1.52c.25-.57.13-.81-.48-1s-.84,0-.92.52C51.52,91.05,50.71,91.82,51.46,92.7ZM82.77,37.77c1.11.18,1.38-.59,1.71-1.2a1.13,1.13,0,0,0-.41-1.5c-.5-.4-1-.78-1.52-1.18-.2-.16-.31-.14-.46.06l-3.25,4.4c-.1.14-.16.25,0,.42.54.76,1.12.78,1.66,0,.24-.33.46-.67.72-1,.13-.15.22-.55.51-.31s0,.45-.12.64c-.33.46-.65.92-1,1.36-.21.26-.21.4.08.63.81.64.8.66,1.42-.19l.39-.52C82.8,39,83.24,38.51,82.77,37.77ZM37.89,87a.84.84,0,0,0,.62-.19,17.3,17.3,0,0,0,3-2.71,1.42,1.42,0,0,0-.66-2.27.49.49,0,0,1-.4-.44c-.15-.64-.57-.7-1.06-.26l-1,.92c-.94.87-.94.88,0,1.81.34.35.91.25.9-.19s.41-.63.64-.92.35-.33.55-.1,0,.41-.18.55c-.78.73-1.57,1.46-2.37,2.17-.16.14-.36.46-.58.21s.11-.45.25-.65.52-.28.37-.52a5.78,5.78,0,0,0-.91-1s-.18.07-.25.14A1.75,1.75,0,0,0,36,85.4,2.31,2.31,0,0,0,37.89,87Zm7.25-54.64a1.82,1.82,0,0,0-1.65,2.77c.47.91,1,1.8,1.51,2.66a1.56,1.56,0,0,0,2.32.44A1.58,1.58,0,0,0,48.14,36c-.53-1-1.13-2-1.72-3A1.39,1.39,0,0,0,45.14,32.34Zm2.58,62c.34-.33,1-.08,1.31-.64a25.2,25.2,0,0,0,1.7-3.46,1.42,1.42,0,0,0-1.39-1.87c-.29,0-.4,0-.58-.28-.34-.54-.79-.44-1.08.13s-.43.87-.64,1.3c-.54,1.08-.54,1.08.58,1.62.51.24,1-.05.83-.57s.19-.73.32-1.08c.07-.18.23-.34.44-.21s.14.33.06.5c-.51,1-1,2.06-1.55,3.09-.08.15-.17.37-.41.26s-.13-.31-.07-.48c.28-.84.13-1.11-.73-1.39-.26-.09-.34,0-.43.18a1.82,1.82,0,0,0-.18,1.75A2.33,2.33,0,0,0,47.72,94.35ZM41.41,42.83l-3.85-2.41c-1.43-.89-1.41-.88-2.52.42-.28.32-.33.54,0,.87,1.16,1.26,2.3,2.54,3.45,3.81.1.11.24.36.35.26a5.08,5.08,0,0,0,.92-1c.23-.33-.22-.41-.35-.6s-.32-.29-.12-.55.37-.17.53,0c.47.5.79.3,1.1-.18C41,43.26,41.2,43.09,41.41,42.83Zm13-8.59c-.07-.23-.11-.41.14-.5s.41-.07.45.18c.15,1,.78.58,1.34.47.41-.09.46-.23.29-.61-.74-1.6-1.45-3.21-2.15-4.83a.41.41,0,0,0-.6-.27c-.46.15-.93.25-1.39.38-.25.07-.4.16-.35.5.27,1.77.5,3.55.74,5.33,0,.15.06.41.22.38a4.73,4.73,0,0,0,1.22-.35C54.69,34.77,54.46,34.45,54.45,34.24Zm-24.53,41c0,1.31,1,2.39,2.08,2.08a16.13,16.13,0,0,0,3.48-1.46c1-.57,1-1.72.19-2.79a1.84,1.84,0,0,0-2.54-.22.26.26,0,0,0-.09.34,3.13,3.13,0,0,0,.51,1.07c.23.22.55-.18.86-.23a1.09,1.09,0,0,0,.23-.09.31.31,0,0,1,.42.1c.15.23-.05.37-.21.44-1.08.46-2.17.9-3.26,1.35-.18.07-.39.12-.49-.1s.07-.34.25-.42.55-.22.81-.36.5,0,.31-.41-.19-1-.63-1.12C31.12,73.27,29.92,74.48,29.92,75.28Zm-.85-17.36c-.28.09-.63-.14-1,.13a2.35,2.35,0,0,0-.59,2.22A1.51,1.51,0,0,0,29,61.47a24.45,24.45,0,0,0,3,.25,1.64,1.64,0,0,0,1.68-.79,2.24,2.24,0,0,0-.1-2.3c-.25-.37-1.59-.87-1.9-.67s-.19.73-.22,1.1c-.05.72.57.41.92.53s.55,0,.5.38-.32.24-.54.22c-.93-.08-1.87-.12-2.8-.26-.32,0-1,.14-.9-.38s.65-.16,1-.19a2.69,2.69,0,0,1,.4,0c.17,0,.32,0,.34-.24a3.3,3.3,0,0,0,0-1.25c-.13-.29-.57.15-.88,0A1.51,1.51,0,0,0,29.07,57.92Zm6.56-5.83a1.35,1.35,0,0,0-.9-1.42,2.32,2.32,0,0,0-2.79.51c-.25.23-.48.51-.89.48s-.7,0-.67-.39.38-.18.63-.14c.69.08.44-.58.65-.88s.08-.42-.22-.54a1.39,1.39,0,0,0-1.94.88c-.48,1.06-.31,1.9.47,2.31a2,2,0,0,0,2.52-.26c.37-.33.72-.77,1.31-.66.31.05.75.11.67.52s-.48.11-.73.09a2,2,0,0,1-.23-.07c-.62-.11-.45.46-.58.73s-.37.49.14.68C34.79,54.55,35.49,53.44,35.63,52.09ZM84.81,41a1.3,1.3,0,0,1-.19.4,1,1,0,0,1-.61.48.35.35,0,0,1-.25-.15c-.14-.34.16-.49.34-.65s.35-.45,0-.78c-.69-.72-.75-.72-1.4.12a1.41,1.41,0,0,0,.15,1.9,1.83,1.83,0,0,0,1.93.85,2.37,2.37,0,0,0,1.39-2.68A5.91,5.91,0,0,1,86,39.3a.73.73,0,0,1,.55-.63.29.29,0,0,1,.27.06c.22.3-.09.43-.24.58s-.14.39.06.53.45.79.83.6a1.26,1.26,0,0,0,.74-1.32,2.59,2.59,0,0,0-1.7-1.79c-.86-.16-1.31.47-1.77,1a1.57,1.57,0,0,0-.21,1.3ZM38.22,78.49c0-1.08-1-2.25-1.87-2.15a2.48,2.48,0,0,0-2,2.26c0,.32,0,.64,0,1s-.32.58-.66.71a.25.25,0,0,1-.34-.13c-.12-.37.26-.39.44-.55.34-.32,0-.54-.15-.74s-.11-.64-.56-.53a1.44,1.44,0,0,0-1,1.49c.14.88,1,1.9,1.63,1.86a2.07,2.07,0,0,0,2.09-2.23,2,2,0,0,1,.15-1.1,1.09,1.09,0,0,1,.85-.54.24.24,0,0,1,.26.24c0,.36-.38.4-.6.58s-.47.15-.23.45.27.9.75.92S38.22,79.06,38.22,78.49Zm53,3.23a1,1,0,0,0,.94-.54c.33-.49.6-1,.92-1.51s.21-.56-.22-.78q-2.19-1.19-4.33-2.45c-.42-.25-.54-.18-.83.22-.52.71-.38,1.09.41,1.37.29.11.55.33.84.46s.42.37.2.73-.48.84-.11,1.26A4.13,4.13,0,0,0,91.22,81.72ZM56,93.45c-.67-.28-.48.31-.59.57s0,.56.41.55.53.22.43.62-.11.77-.69.54c-.31-.12-.49,0-.58.38-.12.58,0,.83.59.87a6.75,6.75,0,0,1,1.26.2c.52.14.71,0,.79-.55.17-1.27.41-2.54.62-3.8.26-1.58.26-1.58-1.34-1.87a4.3,4.3,0,0,0-.47-.09c-.33,0-.73-.2-.76.39,0,.39-.19.82.5.79s.54.34.47.76S56.54,93.61,56,93.45ZM32,54.86c.17-.32,0-.46-.41-.49s-.69-.33-.73.32c0,.46-.3.53-.73.4s-.65-.2-.47-.62c.28-.62-.17-.62-.55-.73s-.58.16-.64.55-.2.94-.31,1.41-.09.57.39.66c1.66.33,3.3.71,5,1.09.43.1.63,0,.68-.48a7,7,0,0,1,.32-1.49c.16-.47.08-.67-.42-.76s-.74,0-.75.48-.34.56-.71.43S31.71,55.64,32,54.86ZM30.37,68.15c.11.54-.37.37-.62.46s-.56.21-.57-.24c0-.62-.31-.66-.83-.58-.73.12-.37.56-.32.9s.22.94.28,1.41.18.41.52.33c1.21-.26,2.43-.46,3.63-.74.61-.15,1.47,0,1.79-.5S34.09,68,34,67.34c0-.33,0-.8-.61-.68s-.85.24-.56.87c.13.29,0,.58-.35.53s-.82.54-1-.15c-.1-.41-.1-.68-.68-.54S30.18,67.68,30.37,68.15Zm34.86,24.5c.55-.33.68,0,.68.43s.38.79-.32.86c-.31,0-.67,0-.56.53s.12.77.73.63.36.39.45.64,0,.57-.34.55c-.61,0-.64.24-.59.77s.48.43.79.42.8-.15,1.2-.13c.6,0,.71-.25.64-.78-.18-1.43-.34-2.87-.5-4.31-.12-1.12-.12-1.12-1.28-1-.35,0-.7,0-1,.1s-.68,0-.51.56C64.7,92.3,64.56,92.86,65.23,92.65ZM81.17,33.1c0-.19-.17-.22-.3-.3a11,11,0,0,1-1.24-.74c-.54-.44-.79-.21-1.06.29-.54,1-1.13,1.94-1.68,2.92-.32.56-1,1.13-.85,1.66s1,.73,1.6,1.09c.27.18.56.53.87-.05s.36-.76-.23-1-.35-.51-.12-.8.22-.85.78-.41c.38.31.56.12.78-.23s.19-.6-.22-.78c-.58-.25-.13-.54,0-.83s.32-.42.66-.2A.72.72,0,0,0,81.17,33.1Zm.94,57a2.66,2.66,0,0,1-.45.34c-.39.21-.32.41-.11.75.3.49.57.49,1,.15a9.8,9.8,0,0,1,1.18-.85c.38-.23.34-.42.11-.74-.81-1.1-1.6-2.22-2.39-3.33s-.87-1.23-2.07-.39a4.49,4.49,0,0,1-.52.37c-.38.22-.54.41-.22.86s.57.49.93.12.57-.2.72.15.77.56.12,1c-.35.2-.44.4-.15.74s.4.59.81.22c.11-.11.29-.34.47-.15A8.12,8.12,0,0,1,82.11,90.1ZM93.49,46.33c-1.58,1.23-2.87,2.74-4.79,3.42-.65.23.06.64.1,1s.18.52.61.31a6.82,6.82,0,0,1,2.47-.88c1.05-.09,2.09-.3,3.15-.46-.54-1.3-.54-1.29-1.82-1-.18,0-.38.18-.59,0C94.09,47.5,94.09,47.5,93.49,46.33Zm3.84,12.92c-.06-.48-.13-1-.17-1.43,0-.28-.11-.37-.4-.33L91.5,58c-.19,0-.42-.07-.47.28-.12,1,.16,1.31,1.16,1.22a7,7,0,0,0,.8-.1c.47-.09.84-.08.84.57,0,.49.38.34.64.31s.63,0,.48-.5,0-.59.51-.61.75,0,.69.56c0,.33.1.42.45.46C97.49,60.32,97.4,59.81,97.33,59.25ZM87.5,87c-.2-.22-.4-.46-.63-.68s-.34,0-.44.15c-.29.33-.48.25-.75,0-.85-1-1.77-1.87-2.6-2.86-.51-.6-.71,0-1,.18s-.66.44-.17.92c.87.87,1.65,1.83,2.51,2.72.33.34.5.6,0,.91-.26.16-.22.36,0,.5s.37.73.71.46c.8-.63,1.51-1.36,2.26-2.06C87.44,87.19,87.45,87.13,87.5,87ZM37,38.83c.36.36.66,1.1,1.35.27.14-.18.32.11.44.23.91.91,1.84,1.8,2.71,2.76.6.67.77-.06,1.09-.27s.48-.48.06-.86c-.94-.88-1.81-1.83-2.73-2.73-.26-.25-.35-.44,0-.7.6-.46-.06-.65-.24-.91-.28-.44-.49-.07-.67.12C38.3,37.41,37.66,38.1,37,38.83ZM90.72,44c0,.27-.27.32-.45.42C89.18,45,88.1,45.68,87,46.25c-.7.35-.23.67-.06,1s.26.77.85.39c1-.64,2.1-1.2,3.14-1.8.38-.22.71-.49,1,.15.2.48.48.09.7,0s.59-.15.34-.55c-.45-.75-.9-1.51-1.36-2.26-.29-.47-.67-.12-1,0s-.1.37,0,.57S90.67,43.88,90.72,44ZM57,28.24c-.69-.2-.81,0-.66.72.24,1.12.37,2.27.52,3.42.27,2,.26,2,2.22,1.65.32-.06.68-.09.53-.57s0-.91-.67-.65c-.41.16-.43-.14-.47-.42L58,29C57.89,28.46,57.7,28.05,57,28.24ZM35,71.18c-.07-1-.41-1.27-1.37-1-1.38.41-2.75.88-4.16,1.23-.68.17-.8.44-.51,1,.14.28,0,.83.66.62,1.66-.52,3.33-1,5-1.51C34.75,71.49,35,71.52,35,71.18Zm55.41-29.8a6,6,0,0,0-.85-1c-.26-.2-.45.18-.63.34-1.27,1-2.51,2.1-3.79,3.11-.64.5,0,.71.19,1s.32.68.82.24c1.29-1.13,2.64-2.19,4-3.28C90.18,41.7,90.34,41.63,90.36,41.38Zm-43,46a4.16,4.16,0,0,0-1.09-.82c-.29-.19-.35.15-.45.29-1,1.41-1.93,2.84-2.92,4.24-.47.65.21.68.46.9s.53.52.87,0c.93-1.45,1.92-2.84,2.89-4.26C47.21,87.6,47.29,87.5,47.37,87.38ZM45.05,39.51a5.49,5.49,0,0,0-.39-.66c-1-1.25-2.06-2.48-3.08-3.73-.55-.68-.73.13-1.06.27s-.48.39-.14.78c1.09,1.26,2.13,2.57,3.21,3.84.13.15.22.53.53.33A2.84,2.84,0,0,0,45.05,39.51Zm26.21-4.37c.27,0,.29-.25.35-.43.54-1.62,1.06-3.25,1.63-4.85.29-.8-.41-.62-.72-.79s-.63-.31-.8.29c-.43,1.49-1,2.94-1.45,4.41C70,34.64,70.32,35.11,71.26,35.14Z"/><path class="cls-4" d="M26.63,17.66c1.44,1.61,2.77,3.08,4.1,4.55,1.11,1.24,2.23,2.47,3.33,3.72a1.42,1.42,0,0,0,2,.43,2.6,2.6,0,0,1-1.15,2.43c-1,.72-1.87,1.62-2.82,2.41a1.53,1.53,0,0,0-.63,1.46,4,4,0,0,1,0,.49c0,.51.15,1.13-.09,1.5s-.86,0-1.32,0a2.78,2.78,0,0,0-1.62.82,20.94,20.94,0,0,0-3.76,5,39.52,39.52,0,0,0-2.26,4.45,1.06,1.06,0,0,0,.27,1.4c1.18,1.09,1.13,2.34-.13,3.54,0-1.9-1.37-2.34-2.78-2.74l-2.32-.68a1.36,1.36,0,0,1-1-1.45c0-1.71,0-3.43,0-5.13,1.12,1.63,3.12,1.58,4.74,2.3.31.14.34-.13.43-.32a22.49,22.49,0,0,1,2-3.68.84.84,0,0,0-.22-1.31c-1.64-1.3-3.24-2.65-4.9-3.94a2.73,2.73,0,0,0-2.07-.71c-.22,0-.46,0-.43-.31A15.19,15.19,0,0,0,15.77,29l6,4.68c.63.49,1.26,1,1.9,1.49a1.25,1.25,0,0,0,2-.17,4.14,4.14,0,0,1,3.8-1.63l.56,0c.18,0,.35-.07.37-.24s-.17-.34-.36-.35c-.53,0-1.07,0-1.61,0s-.86,0-1.29,0a1.22,1.22,0,0,1-1.35-1.27c-.15-1.81-.28-3.63-.42-5.59,1.08,1.09,2.5,1.13,3.73,1.62a2.89,2.89,0,0,1,1.81,1.25c.15.31.29.22.48.06l.18-.16c1.93-1.64,2-1.28.19-3.16-.92-1-1.87-1.92-2.74-2.94a4.17,4.17,0,0,0-2.79-1.44c-.43-.06-.66-.08-.35-.6A7.07,7.07,0,0,0,26.63,17.66ZM27.24,29a1.09,1.09,0,0,0,.91,1.43c.6.16,1.19.32,1.79.46.2.05.41.43.6.1a.69.69,0,0,0-.17-.74,1.6,1.6,0,0,0-.77-.41A8.78,8.78,0,0,1,27.24,29ZM20.42,44.15c0-.28-.2-.3-.37-.36-.47-.17-.95-.34-1.43-.48-.22-.06-.51-.43-.68-.07a.68.68,0,0,0,.35.89,10.5,10.5,0,0,0,1.58.54C20.3,44.79,20.29,44.37,20.42,44.15Z"/><path class="cls-4" d="M104.2,60.43c.87,1.89,2.37,1.83,3.92,1.59.61-.09,1.22-.23,1.83-.32a1.29,1.29,0,0,1,1.46.74c.82,1.55,1.64,3.08,2.56,4.8-1.71-1.11-3.23-.14-4.79,0-.78,0-1,.39-1,1.15a14.36,14.36,0,0,1-.52,3.74c-.16.56,0,1,.58,1.11,2.17.61,4.33,1.23,6.51,1.81a2.77,2.77,0,0,0,2.19-.52,8.51,8.51,0,0,0,.93,2.94c-1.13-.29-2.1-.53-3.06-.79L108.5,75a1.42,1.42,0,0,0-2,1.07c-.3.89-.6,1.78-.92,2.66-.2.56,0,.76.55.71,1.14-.09,2.16-.35,2.27-1.86l.2.1c.39.93.81,1.84,1.18,2.78a1.66,1.66,0,0,1-.15,1.25c-.32.83-.64,1.66-1,2.47a1.08,1.08,0,0,0,0,1.24,2.16,2.16,0,0,1-1.88-1.28c-.33-.76-.66-1.53-1-2.28-.13-.27-.12-.67-.58-.67a.94.94,0,0,0-.81.59,12.17,12.17,0,0,0-1,2,3.65,3.65,0,0,1-2.64,2.34c-.35.11-.68.27-1,.42a.82.82,0,0,0,.86.3l1.83-.31a1.81,1.81,0,0,1,2.28,1c.22.36.39.75.65,1.26a6.72,6.72,0,0,0-3.38.13c-1.68.34-2.26.05-3-1.48l-.09-.13c-.22-.49-.69-1-.61-1.45s.86-.28,1.3-.5a2.3,2.3,0,0,0,1.2-1.12c.52-1.15,1.16-2.24,1.69-3.39a1.55,1.55,0,0,1,1.6-1.07c.31,0,.81,0,.42-.48-.84-1.12-.5-2.19-.07-3.34a37.43,37.43,0,0,0,2-10.64,1.23,1.23,0,0,0-.76-1.38A2.5,2.5,0,0,1,104.2,60.43ZM111,65c-.23-.54-.5-.9-1.14-.77s-1.38.11-1.33,1.18ZM108.2,80.84l-1.24.07c-.53,0-.48.3-.26.63s.5.58.85.49C108.07,81.89,108,81.34,108.2,80.84Z"/><path class="cls-4" d="M7.2,76.54l4.2-1.18,5-1.39A2,2,0,0,0,18,71.5a8,8,0,0,0-.39-2c-1.61,1.09-3,.45-4.23-.63A6.64,6.64,0,0,0,12,67.91c-.24-.11-.5-.29-.75-.1s0,.44,0,.66.12.25,0,.44L8.43,67.49c1-.33,1.77-.62,2.59-.87a2,2,0,0,1,1.38.3,4.53,4.53,0,0,0,3.13.4A1.81,1.81,0,0,0,16.81,65s0,0,0-.07c-.52-1.74-.52-1.74,1.21-2.43,1.42-.57,1.41-.57,1.46.95.21,5.83.9,11.57,3.43,16.93.5,1,1.06,2,1.53,3.11a1.31,1.31,0,0,0,1.6.9,2.37,2.37,0,0,1,2.78,1.88c-.32.08-.55-.17-.83-.2a2.61,2.61,0,0,0-2.64.78,15.91,15.91,0,0,1-1.49,1.47,1.25,1.25,0,0,1-1.4.32l-5.36-2.16c2.25-.31,3-2.28,4.38-3.49.24-.21.06-.45,0-.67a63.19,63.19,0,0,1-2.27-6.45.87.87,0,0,0-1.22-.68c-1.92.5-3.85,1-5.76,1.51a4.25,4.25,0,0,0-1.92,1.54c-.32.36-.51.41-.83,0A6.6,6.6,0,0,0,7.2,76.54ZM21,86.43a1.48,1.48,0,0,0,2-.73c.11-.32-.18-.48-.33-.68s-.36,0-.49.14C21.82,85.57,21.43,86,21,86.43Z"/><path class="cls-4" d="M75.44,12.52c0-.26.21-.35.34-.47l2-1.72c0,1.66.12,3.19-1.3,4.29a3.56,3.56,0,0,0-1.07,1.87,1.8,1.8,0,0,0,1,2.35,12.54,12.54,0,0,0,1.84.81.87.87,0,0,1,.65,1c0,.48,0,1,0,1.54-1.49-.53-2.91-1.06-4.35-1.53a38,38,0,0,0-12.11-2,38,38,0,0,0-6,.6c-.45.07-.52.32-.6.7a2.42,2.42,0,0,1-2.87,2c1.21-1.14,1-2.37.37-3.7-1-2.37-1.06-2,.65-3.8l2.79-2.91s.09,0,.24-.09a3,3,0,0,0,.38,2.72A15.43,15.43,0,0,1,58.18,16a1.29,1.29,0,0,0,1.63,1,27.83,27.83,0,0,1,6.12,0c.73.08,1-.25,1.13-.91.22-1.65.42-3.31.69-5A4.73,4.73,0,0,0,67.07,8c-.23-.42-.15-.6.3-.7a7,7,0,0,0,2.57-1.45c-.39,3.31-.77,6.53-1.16,9.75A1.68,1.68,0,0,0,70,17.42c.41.11.84.16,1.26.23s.81.29,1.09.17,0-.66.1-1a3.6,3.6,0,0,1,1.82-2.15A8.89,8.89,0,0,0,76,13.49c.18-.18.51-.33.43-.63s-.44-.23-.69-.28ZM55.51,15.06a1.34,1.34,0,0,0,0,2.13.72.72,0,0,0,.76-.07c.28-.18,0-.37-.06-.54Z"/><path class="cls-4" d="M42,101.68a1.46,1.46,0,0,0-.3,1.7c.84,2.5.78,2.66-1.69,4,.56-1.45-.21-2.69-.37-4a1.88,1.88,0,0,1,1.06-2.27c.48-.29,1-.55,1.47-.84s.61-.29.71.26a2.55,2.55,0,0,0,1.67,2A41.22,41.22,0,0,0,57,106.06c.55.06.68.24.54.81-.63,2.5-1.17,5-1.82,7.51a5.87,5.87,0,0,0,.22,3.09c.1.36.06.5-.31.63a17.05,17.05,0,0,0-2.53,1.53c.28-1.19.52-2.27.78-3.34.52-2.11,1.06-4.21,1.59-6.32.31-1.25-.05-1.86-1.28-2.19a2,2,0,0,0-1-.1.56.56,0,0,0,0,.15c0,.3.5.54.28.76a5.14,5.14,0,0,1-1.29.79c-.2.1-.26-.13-.3-.28a6.24,6.24,0,0,1-.23-1c-.06-.75-.38-1.2-1.24-1.13a4.35,4.35,0,0,0,.28,1.38c0,.21.46.39.15.61a5.55,5.55,0,0,1-1.33.73c-.17.06-.19-.27-.23-.44-.19-.78-.36-1.57-.55-2.35a1.14,1.14,0,0,0-.15-.46.84.84,0,0,0-.85-.33c-.35.11-.09.45,0,.68a5.27,5.27,0,0,0,.57,1.83c.23.31-.21.34-.38.44-1.15.74-1.15.73-1.41-.6-.18-.89-.41-1.78-.59-2.67a.67.67,0,0,0-.52-.63C43.08,104.55,43,104.35,42,101.68Z"/><path class="cls-4" d="M94.64,28.36a6,6,0,0,0,1.81,4.08c.86.87,1.6,1.87,2.4,2.82.45-.39.44-.76.06-1.23-.61-.75-1.11-1.58-1.71-2.34a2.07,2.07,0,0,1-.2-2.33,9,9,0,0,0,1.12-2.48c0-.42.39-.13.58-.1,1.31.18,1.32.19.7,1.36-1.32,2.48-1.33,2,.29,4.23.39.55.76,1.11,1.17,1.64a1,1,0,0,1,.07,1.33,2.21,2.21,0,0,0,.09,3.2,7.25,7.25,0,0,1,.47.75.81.81,0,0,0,1.18.31c1.84-.94,3.69-1.86,5.52-2.83.73-.38.85-1.21,1.17-1.87s.41-.66.94-.25a6,6,0,0,0,2.84,1.09L109,37.93c-1.9,1-3.82,2-5.71,3-.76.42-1.65.83-1.3,2a1.68,1.68,0,0,1-1.32-.9,42.71,42.71,0,0,0-8.1-10.78c-.15-.14-.38-.25-.13-.52C93.13,30,93.83,29.24,94.64,28.36Z"/><path class="cls-4" d="M96.42,109.32c-2.26-2.92-4.42-5.69-6.56-8.48a2.48,2.48,0,0,0-2.1-1.28c-.33,0-.36-.16-.24-.4A2.87,2.87,0,0,1,88.4,98c1.81-1.28,3.29-2.93,5-4.27.42-.32.16-.53,0-.8a2.44,2.44,0,0,1,.86-3.5,2.78,2.78,0,0,0,1.7,3c.76.43,1.42,1,2.21,1.47a1.37,1.37,0,0,1,.61,1.6c-.22,1.62-.43,3.24-.66,5-1.12-1.9-3.22-2.13-4.87-3.07-.49-.27-2.66,1.4-2.63,2A1,1,0,0,0,91,100c1.14,1.46,2.28,2.92,3.4,4.39a3.49,3.49,0,0,0,2.4,1.49c.51.06.55.26.34.67A10.43,10.43,0,0,0,96.42,109.32Zm.64-12.23a1.86,1.86,0,0,0-1.45-1.86c-.38,0-.57.32-.7.58s.2.33.37.41C95.85,96.52,96.43,96.78,97.06,97.09Z"/><path class="cls-4" d="M89.25,113.68,87.61,110c-.71-1.59-1.43-3.18-2.13-4.78s-1.23-1.7-2.69-1.11l-.61.26c1.3.75.81,1.68.42,2.63-.55,1.33-1.07,2.68-1.68,4a3.43,3.43,0,0,0-1.51-2.24c-1.52-1.27-3-2.56-4.61-3.91,1.88-.64,3.64-1.28,5.35-2a41.36,41.36,0,0,0,4.31-2.17c.45-.26.64-.28.87.27,1.07,2.58,2.23,5.12,3.29,7.7a5.45,5.45,0,0,0,1.92,2.22c.36.28.57.47,0,.84A4.83,4.83,0,0,0,89.25,113.68Zm-10.43-7.86c.58.51,1.09.93,1.57,1.39s.48.08.55-.22c.16-.77-.53-1-.93-1.35S79.25,105.57,78.82,105.82Z"/><path class="cls-4" d="M33.45,12.77c1.6,2.94,3.13,5.74,4.65,8.55.73,1.35,1.4,1.62,2.7.8a3,3,0,0,1,3.31-.21,6.71,6.71,0,0,0,1.12.36.86.86,0,0,0-.41-.84c-.5-.36-1-.74-1.48-1.12a1.9,1.9,0,0,1-.8-2.52c.12-.37.28-.73.47-1.24.38,1.34,1.49,1.78,2.37,2.46,1.36,1.06,1.52,1.41,1.08,3-.18.65-.37,1.29-.53,1.94-.09.37-.16.61-.6.26a2.68,2.68,0,0,0-3.54-.07c-.73.53-1.58.92-2.35,1.4-.41.26-.64.27-.91-.23-1.18-2.2-2.45-4.35-3.61-6.56a6.34,6.34,0,0,0-2.3-2.41c-.22-.14-.46-.23-.22-.6A9.37,9.37,0,0,0,33.45,12.77Z"/><path class="cls-4" d="M85,21.4c-1,1.3-1,1.3-.38,2.73.52,1.27,1,2.53,1.55,3.8a.7.7,0,0,0,1.05.48c1.93-.67,2-.94.64-2.43-.31-.34-.61-.68-.9-1-.68-.82-.56-1.58.42-2,2.25-.93,4.53-1.81,6.86-2.67a3,3,0,0,0-.37,2.07c0,.94.09,1.88.16,2.82a2.64,2.64,0,0,0,1.16,2.29,3.4,3.4,0,0,1-3.4-2.28,16.91,16.91,0,0,1-.19-2c0-.56-.29-.73-.8-.55s-1.11.4-1.65.65-.75.67-.27,1.23,1,1.12,1.47,1.71a1.28,1.28,0,0,1-.54,2.2c-1.16.5-2.33.95-3.52,1.38a1.35,1.35,0,0,1-1.89-.86c-.75-1.79-1.45-3.58-2.18-5.37a1,1,0,0,1,.59-1.42A10.61,10.61,0,0,1,85,21.4Z"/><path class="cls-4" d="M68.23,110.32c.85-1.56.85-1.56-.24-2.66-.95-1-1.92-1.88-2.85-2.85-.45-.45-.82-.51-1.28,0-.7.75-1.43,1.47-2.16,2.18a1.41,1.41,0,0,0-.21,1.9c.28.46.55.92.8,1.39a2,2,0,0,1-.44,2.87l-1,.89a4.27,4.27,0,0,0-.81-2.85c-.23-.46-.49-.9-.68-1.37a1.86,1.86,0,0,1,.36-2.22c1.42-1.4,2.79-2.84,4.21-4.23.9-.88,1.54-.85,2.42,0,1.25,1.23,2.48,2.47,3.71,3.71.66.67.65,1,0,1.68A8.86,8.86,0,0,1,68.23,110.32Z"/><path class="cls-4" d="M30.31,109.61a14.67,14.67,0,0,1,1-1.43A8.65,8.65,0,0,0,33.19,103c.12-1.34.35-2.66.55-4a3.61,3.61,0,0,1,.25-.85c.77-1.83,1-1.87,2.51-.67.71.57,1.48,1.06,2.21,1.61.35.27.87.59.52,1.1s-.36,1.32-1.36,1.18a9.33,9.33,0,0,0-2.08.2c-.21,0-.54.21-.59-.16a.66.66,0,0,1,.47-.82c.24-.07.69.11.68-.34s-.38-.53-.67-.63c-.72-.25-.64.4-.69.75-.2,1.44-.35,2.88-.49,4.33a2.37,2.37,0,0,1-.33,1.15,5.56,5.56,0,0,0-.88,2.88c0,.41-.1.68-.66.58A9.49,9.49,0,0,0,30.31,109.61Z"/><path class="cls-4" d="M104,48.26c-.92-1-1.77-2-1.47-3.47a2,2,0,0,1,1.22-1.48c1.5-.65,3-1.39,4.48-2a4.59,4.59,0,0,0,2.42-2.12c.29-.53.52-.75,1.11-.27a9.11,9.11,0,0,0,3.07,1.31l-5.63,2.5c-1.22.54-2.45,1.07-3.67,1.62-1.61.73-2,1.53-1.64,3.27C103.9,47.84,103.92,48.05,104,48.26Z"/><path class="cls-4" d="M22.39,103.14A27.31,27.31,0,0,1,25.21,100c1.22-1.36,2.5-2.66,3.75-4,1.49-1.58,1.58-2.34.52-4.21a1.38,1.38,0,0,1-.2-.5,5.23,5.23,0,0,1,2.38,2.36,1.59,1.59,0,0,1-.46,1.9c-1.27,1.38-2.52,2.78-3.84,4.12a5.43,5.43,0,0,0-1.56,2.93c-.08.48-.21.68-.77.55a12.35,12.35,0,0,0-2.65,0Z"/><path class="cls-3" d="M15.27,52.63a2.58,2.58,0,0,1,2.6,2.6,2.64,2.64,0,0,1-2.62,2.68,2.75,2.75,0,0,1-2.65-2.62A2.71,2.71,0,0,1,15.27,52.63Z"/><path class="cls-3" d="M109.61,57.65A2.62,2.62,0,1,1,112.3,55,2.62,2.62,0,0,1,109.61,57.65Z"/><path class="cls-5" d="M27.13,107.42c1.23-1.81,2.3-3.48,3.49-5.06A5.34,5.34,0,0,1,33,100.79a1.42,1.42,0,0,1-.71,1.49,5,5,0,0,0-2,3.25c0,.11,0,.22,0,.33-.14,1.21-.14,1.2-1.37,1.28a6.84,6.84,0,0,0-.79.12Z"/><path class="cls-5" d="M44.59,24.74c.35.18.67.37,1,.51.59.24.57.73.48,1.2s-.54.15-.82.18a2.67,2.67,0,0,1-.4,0c-.81-.05-1-.26-.66-1C44.31,25.33,44.45,25.05,44.59,24.74Z"/><path class="cls-5" d="M40.73,108a6.28,6.28,0,0,1,1.17,1.44c.21.5-.44.63-.79.83-.17.1-.52.37-.6.12-.16-.52-.72-1-.46-1.55A4.11,4.11,0,0,1,40.73,108Z"/><path class="cls-5" d="M100.85,81.11a.58.58,0,0,1,0,.17,1.65,1.65,0,0,1-2.29-.2s0,0,0-.06c.24-.55.82-.76,1.22-1.15s.55-.05.69.25S100.71,80.79,100.85,81.11Z"/><path class="cls-5" d="M100.09,83.39a.54.54,0,0,1,0,.22,2.85,2.85,0,0,1-1.71.29c-.74-.46-.75-.6-.08-1.13l.2-.15c.29-.19.49-.7.92-.47S99.88,83,100.09,83.39Z"/><path class="cls-5" d="M21.25,29.17c.09-.21-.13-.7.21-.71a2.16,2.16,0,0,1,1.45.25,1.36,1.36,0,0,1,.41,1c0,.15-.16.18-.29.2s-.48.05-.71.1C21.35,30.27,21.24,30.2,21.25,29.17Z"/><path class="cls-5" d="M100.35,25.44c0-.4-.26-.87.26-1a1.38,1.38,0,0,1,1.34.3c.25.41-.06,1-.37,1.44a.91.91,0,0,1-1.11.21C100.17,26.19,100.42,25.72,100.35,25.44Z"/><path class="cls-5" d="M23.68,26.78c.22,0,.39,0,.54,0,.65.1.79.68.81,1.14s-.51.13-.77.25a.82.82,0,0,1-.23,0c-1.11.15-1.24,0-1-1.08C23.07,26.72,23.07,26.72,23.68,26.78Z"/><path class="cls-5" d="M65.07,110.31c.26.19.52.38.79.55.93.61.94.75.07,1.47-.16.14-.33.27-.5.4C64.32,111.27,64.32,111.27,65.07,110.31Z"/><polygon class="cls-4" points="22.38 103.13 22.36 103.16 22.39 103.14 22.38 103.13"/><path class="cls-6" d="M67.27,72.13a2.65,2.65,0,0,0,3.35-1.59,10.76,10.76,0,0,0,.61-3.6c.07-2.22,0-4.45,0-6.67,0-.58.2-.73.74-.72,1.61.05,3.22.05,4.82.07v1.2l0,15.45-1.72.08a8.19,8.19,0,0,1-3.75,0c.16-1-.13-2,.13-3l-.32.5a10.07,10.07,0,0,1-1.62,1.83,7.82,7.82,0,0,1-1.83-.53,53.76,53.76,0,0,1-8.36-3.8c0-3.34,0-6.69,0-10,0-.36.12-.77-.29-1a1.93,1.93,0,0,0-1.12-2.05c-.8-.49-1.54,0-2.3,0-1,.08-1.42.76-1.76,1.57a6.31,6.31,0,0,0-.5,2.71c-.23.24-.13.55-.13.83,0,1.25,0,2.5,0,3.75A9.62,9.62,0,0,1,51.1,65.3,17.42,17.42,0,0,1,47.68,61c0-2.17-.07-4.34-.15-6.51,0-.67.21-.8.82-.81,1.32,0,2.62.11,3.93.16a1.09,1.09,0,0,1,.95.63c-.35.18-.2.56-.3.84s-.24.93.09,1.09.57-.37.84-.62l.22-.2a6,6,0,0,1,4.78-2.22,12.69,12.69,0,0,1,2.75.33.16.16,0,0,0,.15,0c.15.13.25.33.5.28a4.7,4.7,0,0,1,2.46,2.9,16.45,16.45,0,0,1,.43,3.63c0,2.82,0,5.63,0,8.44a7.48,7.48,0,0,0,.38,2A1.67,1.67,0,0,0,67.27,72.13Z"/><path class="cls-7" d="M71.35,76.3a8.19,8.19,0,0,0,3.75,0c-.15.45-.53.23-.81.28s-.7-.08-1,.22c.77,0,1.4.56,2.18.47l0,.31A32.64,32.64,0,0,1,71,76.77a8.73,8.73,0,0,0-2.68-.47c0-.22-.13-.24-.3-.29-1.37-.39-2.76-.75-4.1-1.24s-2.66-.88-4-1.32a38.59,38.59,0,0,0-4.63-2,5.58,5.58,0,0,0-2.09-1c0-.23-.23-.26-.39-.36a37,37,0,0,1-5.18-3.41,29.87,29.87,0,0,1-5.57-5.55,10.53,10.53,0,0,1-1.84-3.81,4.89,4.89,0,0,1,2-5.31,14.85,14.85,0,0,1,6.55-2.49c1-.18,2-.27,3-.4l.07,0,.08,0,.33,0c1.2,0,2.4-.09,3.59-.16a11.18,11.18,0,0,0,2.52-.09l0,0v0a1.37,1.37,0,0,0,.27-.75l0-.16.11-.31,0-.17.09-.15L59,47l.1-.31.06-.2c.34.18.25.6.48.85l.06.32.08.19a.11.11,0,0,0,0,.13.36.36,0,0,0,.12.35c0,.21,0,.47.21.6.8.35,1.69-.08,2.5.22l-.41.44,0,0a.48.48,0,0,0-.34.28h0a2.7,2.7,0,0,0-.93.67l-.18.17c-.15,0-.13.09,0,.15h0a2.24,2.24,0,0,0,.33,1.1l.06.2.1.3h0l.14.88c-.64-.47-1.21-.86-1.75-1.29a.54.54,0,0,0-.82,0c-.54.45-1.12.83-1.82,1.34l.69-2.24c.07-.23.17-.44-.1-.64a1.89,1.89,0,0,0-1.72-.61c-.55.13-1.11.19-1.67.3a14.75,14.75,0,0,0-5.78,2.26c-3.08,2.22-2.81,5.95-.79,8.58A17.42,17.42,0,0,0,51.1,65.3,9.62,9.62,0,0,0,53.18,67c0,.09.11.17.17.26l.16,0a3.89,3.89,0,0,0,1.92,1.29.5.5,0,0,0,.22.41,28.31,28.31,0,0,0,3.7,2.22,53.76,53.76,0,0,0,8.36,3.8,7.82,7.82,0,0,0,1.83.53,5.41,5.41,0,0,0,1.73.69A.11.11,0,0,0,71.35,76.3Z"/><path class="cls-8" d="M68.35,76.3a8.73,8.73,0,0,1,2.68.47,32.64,32.64,0,0,0,4.47.86c0,.15,0,.29.21.3a5.2,5.2,0,0,1,1.86.32,1.08,1.08,0,0,0,1.12-.16c-.41-.27-.83-.06-1.21-.25a7.8,7.8,0,0,0-2-.52c-.78.09-1.41-.47-2.18-.47.31-.3.67-.17,1-.22s.66.17.81-.28l1.72-.08,0,0h0c.32-.09.19-.36.19-.54,0-3.32,0-6.65,0-10,0-1.87,0-3.73,0-5.6,0-.17-.08-.38.15-.48,1.61,1.51,1.92,3.37,1.84,5.52-.15,4.45-.06,8.91-.07,13.37l-5.39,0c-.92-1.11-1.73-1-2.94-.17-2.17,1.43-6.91,1.37-8.83-1.92.13-.22.36-.16.56-.2a2.64,2.64,0,0,0,1.32.33l.21.13a4.11,4.11,0,0,0,2.81,0l.13-.12A3.57,3.57,0,0,0,68.35,76.3Z"/><path class="cls-9" d="M47.68,61c-2-2.63-2.29-6.36.79-8.58a14.75,14.75,0,0,1,5.78-2.26c.56-.11,1.12-.17,1.67-.3a1.89,1.89,0,0,1,1.72.61c.27.2.17.41.1.64l-.69,2.24c.7-.51,1.28-.89,1.82-1.34a.54.54,0,0,1,.82,0c.54.43,1.11.82,1.75,1.29l-.14-.88c.61.3.18.86.31,1.28a12.69,12.69,0,0,0-2.75-.33,6,6,0,0,0-4.78,2.22,1.82,1.82,0,0,0-.85-1.11,1.09,1.09,0,0,0-.95-.63c-1.31,0-2.61-.17-3.93-.16-.61,0-.85.14-.82.81C47.61,56.69,47.64,58.86,47.68,61Z"/><path class="cls-10" d="M67.27,72.13A1.67,1.67,0,0,1,65.54,71a7.48,7.48,0,0,1-.38-2c0-2.81,0-5.62,0-8.44a16.45,16.45,0,0,0-.43-3.63c.38-.26.46.12.6.3a8.6,8.6,0,0,1,1.92,5.41C67.24,65.8,67.26,69,67.27,72.13Z"/><path class="cls-8" d="M60.51,94.81c.14-.88.3-1.76.43-2.65.06-.36,0-.67.58-.66s.55.35.59.74a18.2,18.2,0,0,0,.31,2.32,9.4,9.4,0,0,0,.17-2.42c0-.42.09-.68.59-.58s.88-.16.84.6c-.08,1.69-.11,3.39-.13,5.08,0,.45-.16.51-.58.49-1.59-.08-1.59-.06-1.71-1.66a1.34,1.34,0,0,0-.24-.78c-.08.55-.17,1.1-.24,1.66s-.19.74-.78.72c-1.43,0-1.41,0-1.36-1.48s.08-2.69.06-4c0-.61.24-.68.76-.68s.71.11.67.67c0,.87,0,1.76,0,2.64Z"/><path class="cls-10" d="M91.31,73a4.45,4.45,0,0,0-.88-.37c-.67-.16-.66-.51-.42-1,.16-.36.26-.57.73-.37,1.55.65,3.13,1.27,4.7,1.87.38.14.51.24.35.67-.55,1.48-.53,1.49-2.05,1.11a1.76,1.76,0,0,0-.84-.11,6.13,6.13,0,0,0,1.52.91c.38.19.48.35.31.78-.56,1.43-.54,1.44-2,.87-1.25-.48-2.49-1-3.75-1.44-.6-.21-.46-.49-.31-.9s.32-.7.84-.41a5.43,5.43,0,0,0,1,.35,5.53,5.53,0,0,0,1.69.63,5.32,5.32,0,0,0-1.37-.78c-.4-.23-.78-.47-1.18-.69s-.52-.28-.33-.72.38-.45.74-.34c.2.05.42.07.63.11a7,7,0,0,0,2,.44A3.29,3.29,0,0,0,91.31,73Z"/><path class="cls-10" d="M69.54,93.84c-.11-.54-.58-1-.07-1.46.15-.14,0-.3-.15-.4a2.88,2.88,0,0,1-.65-.61c.66-.17,1.13-.71,1.84-.36.25.13.44-.32.68-.48a1.79,1.79,0,0,1,1.87-.35,1.84,1.84,0,0,1,1,1.6,1.48,1.48,0,0,1-.56,1.29,1.79,1.79,0,0,1,1.07,2.07A1.88,1.88,0,0,1,72.9,96.5a1.56,1.56,0,0,1-1.8-2c.24-.76-.29-1-.65-1.36-.15-.17-.28,0-.39.1Zm2.65-1.38a.62.62,0,0,0,0-1,.36.36,0,0,0-.55.13C71.41,92.1,72,92.14,72.19,92.46Zm.47,2a.69.69,0,0,0,.07,1,.24.24,0,0,0,.4-.1C73.27,94.89,73,94.63,72.66,94.41Z"/><path class="cls-10" d="M67.48,31.69c-.15.78-.3,1.38-.36,2s-.35.43-.67.37-.75,0-.65-.57c.33-1.76.66-3.52,1-5.29,0-.25.17-.36.37-.27.38.16,1-.08,1.07.6s.14,1.16.21,1.79c.52-.44.43-1,.51-1.52.12-.67.54-.42.89-.38s.53.15.43.62c-.34,1.62-.6,3.26-.91,4.89,0,.24,0,.73-.45.57s-1,.15-1.07-.57A9.69,9.69,0,0,0,67.48,31.69Z"/><path class="cls-10" d="M41.17,87.83a9.67,9.67,0,0,0-.83,1c-.34.52-.61.48-1,.07s-.37-.46-.07-.81c1.07-1.25,2.08-2.53,3.14-3.79.15-.18.26-.67.63-.32s1,.42.66,1.16A7.68,7.68,0,0,0,43,87c.39-.47.81-.91,1.15-1.4s.56-.29.87,0,.58.38.16.85C44.08,87.71,43.06,89,42,90.31c-.14.16-.25.62-.58.28s-1-.35-.65-1.08a14.09,14.09,0,0,0,.57-1.5c.08-.11.19-.23.05-.38Z"/><path class="cls-10" d="M35.49,46.89a17.47,17.47,0,0,0,1.51.88c.56.26.41.53.17.92s-.35.56-.83.26c-1.4-.88-2.86-1.69-4.29-2.55-.17-.1-.65-.13-.34-.53s.21-1,.9-.82l2,.47a4.08,4.08,0,0,0-1.53-1.1c-.64-.33-.13-.59,0-.87s.33-.51.76-.25c1.41.88,2.86,1.69,4.29,2.55.21.13.67.2.34.61s-.22,1-.9.8l-2-.5Z"/><path class="cls-10" d="M50,32.49c-.23-.59-.43-1.19-.7-1.76s.26-.56.53-.7.52-.3.71.2c.58,1.61,1.24,3.2,1.87,4.79.1.25.3.54-.12.63s-.77.65-1.21.08a7.94,7.94,0,0,0-1.36-1.49c.22.57.41,1.14.66,1.7s-.23.54-.5.67-.56.31-.74-.19c-.61-1.6-1.25-3.19-1.88-4.78-.09-.23-.32-.54.11-.64s.72-.6,1.13-.1l1.37,1.66Z"/><path class="cls-10" d="M84.21,82a2.44,2.44,0,0,1,1.29-1.74,1.47,1.47,0,0,1,1.77.31c1,.85,2.06,1.72,3.11,2.54.71.56-.11.73-.25,1.06s-.35.55-.78.18c-1-.89-2-1.72-3.1-2.56-.18-.15-.42-.53-.65-.26s.19.48.38.65c1,.85,2,1.69,3,2.49.38.3.42.55,0,.79s-.32,1.09-1,.47C87,85,85.9,84.12,84.83,83.23A1.58,1.58,0,0,1,84.21,82Z"/><path class="cls-10" d="M76.91,91.23a1,1,0,0,1-1.14-.7c-.15-.31-.36-.6-.53-.9-.44-.77-.22-1.22.63-1.44.31-.07.31.16.39.29.32.52.61,1.06.93,1.6.11.18.26.4.5.23s0-.32-.07-.48c-.28-.51-.53-1-.86-1.53s.14-.67.43-.83.6-.62,1,0c.8,1.51,1.67,3,2.53,4.47.2.34.17.51-.19.68s-.89.48-1.34.73a1.3,1.3,0,0,1-1.7-.06A1.8,1.8,0,0,1,76.91,91.23Zm2,.87c-.24-.25-.25-.71-.64-.9-.12-.06-.24.13-.2.26.1.35.19.73.58.88C78.77,92.39,78.91,92.35,78.91,92.1Z"/><path class="cls-10" d="M97,69.35a1.7,1.7,0,0,1-2.12,1.85c-1-.14-2-.31-2.93-.51a1.58,1.58,0,0,1-1.32-2c.16-1.12.76-1.69,1.81-1.61a17.92,17.92,0,0,1,3.48.64A1.49,1.49,0,0,1,97,69.35Zm-4.89-.75c-.16,0-.35,0-.41.16s.11.28.27.31l3.56.64c.12,0,.29.05.33-.13s-.11-.29-.27-.32C94.41,69,93.25,68.82,92.09,68.6Z"/><path class="cls-10" d="M90.32,55a1.37,1.37,0,0,1,1-1.49c1.07-.34,2.14-.68,3.24-.92s1.75.28,2,1.42a1.63,1.63,0,0,1-1.19,2.12c-.9.28-1.8.53-2.71.76A1.77,1.77,0,0,1,90.32,55Zm4.78-.95-3.39,1c-.16,0-.32.12-.27.32s.26.18.41.14l3.41-.95c.16-.05.32-.12.27-.33S95.27,54.07,95.1,54.06Z"/><path class="cls-10" d="M51.46,92.7c-.75-.88.06-1.65.19-2.47.08-.56.33-.72.92-.52s.73.45.48,1a11.26,11.26,0,0,0-.5,1.52c-.07.2,0,.41.21.45s.23-.18.28-.33L53.49,91c.1-.27.1-.74.33-.75a3.25,3.25,0,0,1,1.23.32c.23.09.13.33.07.5-.56,1.67-1.13,3.33-1.68,5-.1.32-.24.37-.51.27l-1.51-.53c-.61-.23-1.13-.54-1.12-1.3A2,2,0,0,1,51.46,92.7Zm.67,2.23c.12-.35.27-.7.38-1.06a.17.17,0,0,0-.22-.23c-.42.14-.39.58-.5.91C51.74,94.71,51.85,94.85,52.13,94.93Z"/><path class="cls-10" d="M82.77,37.77c.47.74,0,1.19-.31,1.67l-.39.52c-.62.85-.61.83-1.42.19-.29-.23-.29-.37-.08-.63.36-.44.68-.9,1-1.36.14-.19.36-.45.12-.64s-.38.16-.51.31c-.26.3-.48.64-.72,1-.54.75-1.12.73-1.66,0-.13-.17-.07-.28,0-.42L82.09,34c.15-.2.26-.22.46-.06.5.4,1,.78,1.52,1.18a1.13,1.13,0,0,1,.41,1.5C84.15,37.18,83.88,38,82.77,37.77Zm-.59-1.27c0,.13.14.24.26.21.4-.09.55-.46.71-.78.08-.16-.06-.4-.18-.35C82.59,35.75,82.47,36.18,82.18,36.5Z"/><path class="cls-10" d="M37.89,87A2.31,2.31,0,0,1,36,85.4a1.75,1.75,0,0,1,.77-1.88c.07-.07.23-.16.25-.14a5.78,5.78,0,0,1,.91,1c.15.24-.24.34-.37.52s-.51.37-.25.65.42-.07.58-.21c.8-.71,1.59-1.44,2.37-2.17.16-.14.36-.32.18-.55s-.42,0-.55.1-.66.36-.64.92-.56.54-.9.19c-.92-.93-.92-.94,0-1.81l1-.92c.49-.44.91-.38,1.06.26a.49.49,0,0,0,.4.44,1.42,1.42,0,0,1,.66,2.27,17.3,17.3,0,0,1-3,2.71A.84.84,0,0,1,37.89,87Z"/><path class="cls-10" d="M45.14,32.34a1.39,1.39,0,0,1,1.28.65c.59,1,1.19,2,1.72,3a1.58,1.58,0,0,1-.82,2.22A1.56,1.56,0,0,1,45,37.77c-.55-.86-1-1.75-1.51-2.66A1.82,1.82,0,0,1,45.14,32.34Zm-.36,1.21c-.35.1-.19.33-.1.5.56,1,1.13,2,1.7,3,.09.16.19.38.42.23s.07-.33,0-.49l-1.65-2.93C45.05,33.72,45,33.56,44.78,33.55Z"/><path class="cls-10" d="M75,33c.36-.72.72-1.44,1.09-2.15.46-.87,1-.06,1.41,0s.17.48,0,.71c-.79,1.46-1.62,2.9-2.4,4.36-.2.39-.38.45-.8.29-1.73-.67-1.73-.65-1.31-2.46.3-1.25.61-2.5.85-3.76.09-.44.2-.51.62-.35,1.07.41,1.07.39.77,1.48-.16.56-.3,1.13-.44,1.7a.57.57,0,0,0-.09.52C74.9,33.32,74.88,33.14,75,33Z"/><path class="cls-8" d="M63.76,28.71c.06-.48-.38-1.36.77-1,0,.15-.09.41.18.39s.12-.25.12-.39h.33c0,1,0,2,0,3.06,0,.43,0,.86,0,1.29,0,1.27-.62,1.84-1.83,1.81A1.65,1.65,0,0,1,61.53,32c.06-1.24.17-2.47.15-3.7,0-.86.5-.66,1-.69s.65.2.61.71c-.1,1.31-.13,2.63-.18,3.94,0,.23-.09.58.21.61s.22-.34.27-.54c.1-.39,0-.8.13-1.19a.1.1,0,0,0,.07,0s.06,0,.06,0A7.8,7.8,0,0,0,63.76,28.71Z"/><path class="cls-10" d="M47.72,94.35A2.33,2.33,0,0,1,45.9,93.2a1.82,1.82,0,0,1,.18-1.75c.09-.21.17-.27.43-.18.86.28,1,.55.73,1.39-.06.17-.19.36.07.48s.33-.11.41-.26c.52-1,1-2.06,1.55-3.09.08-.17.15-.38-.06-.5s-.37,0-.44.21c-.13.35-.49.57-.32,1.08s-.32.81-.83.57c-1.12-.54-1.12-.54-.58-1.62.21-.43.42-.87.64-1.3s.74-.67,1.08-.13c.18.31.29.29.58.28a1.42,1.42,0,0,1,1.39,1.87A25.2,25.2,0,0,1,49,93.71C48.71,94.27,48.06,94,47.72,94.35Z"/><path class="cls-10" d="M41.41,42.83c-.21.26-.38.43-.51.63-.31.48-.63.68-1.1.18-.16-.17-.34-.24-.53,0s0,.37.12.55.58.27.35.6a5.08,5.08,0,0,1-.92,1c-.11.1-.25-.15-.35-.26C37.32,44.25,36.18,43,35,41.71c-.31-.33-.26-.55,0-.87,1.11-1.3,1.09-1.31,2.52-.42Zm-4.25-1.08-.11.12,1,1.05c.11.12.23.24.4.07s.1-.31-.09-.44Z"/><path class="cls-10" d="M54.45,34.24c0,.21.24.53-.09.68a4.73,4.73,0,0,1-1.22.35c-.16,0-.2-.23-.22-.38-.24-1.78-.47-3.56-.74-5.33,0-.34.1-.43.35-.5.46-.13.93-.23,1.39-.38a.41.41,0,0,1,.6.27c.7,1.62,1.41,3.23,2.15,4.83.17.38.12.52-.29.61-.56.11-1.19.56-1.34-.47,0-.25-.25-.25-.45-.18S54.38,34,54.45,34.24Zm-.62-3.56-.1,0c.09.58.19,1.15.28,1.72,0,.18.09.32.31.25s.23-.2.16-.38C54.26,31.76,54,31.22,53.83,30.68Z"/><path class="cls-10" d="M29.92,75.28c0-.8,1.2-2,1.92-1.82.44.12.42.74.63,1.12s-.16.33-.31.41-.54.24-.81.36-.35.2-.25.42.31.17.49.1c1.09-.45,2.18-.89,3.26-1.35.16-.07.36-.21.21-.44a.31.31,0,0,0-.42-.1,1.09,1.09,0,0,1-.23.09c-.31.05-.63.45-.86.23A3.13,3.13,0,0,1,33,73.23a.26.26,0,0,1,.09-.34,1.84,1.84,0,0,1,2.54.22c.85,1.07.79,2.22-.19,2.79A16.13,16.13,0,0,1,32,77.36C31,77.67,29.93,76.59,29.92,75.28Z"/><path class="cls-8" d="M33.53,63.91c-.66.26-1.31.53-2,.78-.34.13-.09.16,0,.22A2.34,2.34,0,0,0,33,65c.39,0,.52.16.53.52s-.2.6-.53.49c-.76-.27-1.47.18-2.22.12l.68.06c-1.13.25-2.29.11-3.43.29-.24,0-.41-.06-.34-.29s-.46-.91.27-1.17,1.28-.5,2.06-.82a5.62,5.62,0,0,0-2,0c-.48,0-.57-.18-.52-.54s-.29-.79.41-.79,1.6-.07,2.4-.11l3.22,0h0Z"/><path class="cls-8" d="M29.07,57.92a1.51,1.51,0,0,1,.37,0c.31.13.75-.31.88,0a3.3,3.3,0,0,1,0,1.25c0,.23-.17.25-.34.24a2.69,2.69,0,0,0-.4,0c-.35,0-.93-.4-1,.19s.58.33.9.38c.93.14,1.87.18,2.8.26.22,0,.5.05.54-.22s-.29-.31-.5-.38-1,.19-.92-.53c0-.37-.17-.84.22-1.1s1.65.3,1.9.67a2.24,2.24,0,0,1,.1,2.3,1.64,1.64,0,0,1-1.68.79,24.45,24.45,0,0,1-3-.25,1.51,1.51,0,0,1-1.44-1.2,2.35,2.35,0,0,1,.59-2.22C28.44,57.78,28.79,58,29.07,57.92Z"/><path class="cls-10" d="M94.75,65.35v-.29c.55-.15,1.17.19,1.69-.21.14-.35,0-.57-.36-.59l-3.38-.17c-.22,0-.49,0-.5.29s.31.25.52.33,1-.34,1,.52c0,.37.16,1-.28,1.06a1.85,1.85,0,0,1-1.73-.42,2.11,2.11,0,0,1-.39-2.32,1.45,1.45,0,0,1,1.58-1,21.21,21.21,0,0,1,3.38.17,1.64,1.64,0,0,1,1.3,1.85c0,1.07-.54,1.69-1.46,1.79a3.08,3.08,0,0,1-1.35,0A1,1,0,0,0,94.75,65.35Z"/><path class="cls-10" d="M35.63,52.09c-.14,1.35-.84,2.46-2.56,1.84-.51-.19-.24-.49-.14-.68s0-.84.58-.73a2,2,0,0,0,.23.07c.25,0,.63.38.73-.09S34.11,52,33.8,52c-.59-.11-.94.33-1.31.66A2,2,0,0,1,30,52.9c-.78-.41-.95-1.25-.47-2.31a1.39,1.39,0,0,1,1.94-.88c.3.12.4.28.22.54s0,1-.65.88c-.25,0-.6-.26-.63.14s.38.36.67.39.64-.25.89-.48a2.32,2.32,0,0,1,2.79-.51A1.35,1.35,0,0,1,35.63,52.09Z"/><path class="cls-10" d="M84.81,41l-.25-1.33a1.57,1.57,0,0,1,.21-1.3c.46-.56.91-1.19,1.77-1a2.59,2.59,0,0,1,1.7,1.79,1.26,1.26,0,0,1-.74,1.32c-.38.19-.54-.4-.83-.6s-.28-.3-.06-.53.46-.28.24-.58a.29.29,0,0,0-.27-.06.73.73,0,0,0-.55.63,5.91,5.91,0,0,0,.18,1.18,2.37,2.37,0,0,1-1.39,2.68,1.83,1.83,0,0,1-1.93-.85,1.41,1.41,0,0,1-.15-1.9c.65-.84.71-.84,1.4-.12.31.33.26.51,0,.78s-.48.31-.34.65a.35.35,0,0,0,.25.15,1,1,0,0,0,.61-.48A1.3,1.3,0,0,0,84.81,41Z"/><path class="cls-10" d="M38.22,78.49c0,.57-.73,1.53-1.25,1.51s-.5-.61-.75-.92.08-.34.23-.45.58-.22.6-.58a.24.24,0,0,0-.26-.24,1.09,1.09,0,0,0-.85.54,2,2,0,0,0-.15,1.1,2.07,2.07,0,0,1-2.09,2.23c-.6,0-1.49-1-1.63-1.86a1.44,1.44,0,0,1,1-1.49c.45-.11.42.33.56.53s.49.42.15.74c-.18.16-.56.18-.44.55a.25.25,0,0,0,.34.13c.34-.13.65-.29.66-.71s0-.65,0-1a2.48,2.48,0,0,1,2-2.26C37.2,76.24,38.22,77.41,38.22,78.49Z"/><path class="cls-10" d="M91.22,81.72A4.13,4.13,0,0,1,89,80.48c-.37-.42-.12-.88.11-1.26s.2-.56-.2-.73-.55-.35-.84-.46c-.79-.28-.93-.66-.41-1.37.29-.4.41-.47.83-.22q2.14,1.26,4.33,2.45c.43.22.46.42.22.78s-.59,1-.92,1.51A1,1,0,0,1,91.22,81.72Zm-.77-2.36c-.19,0-.26.09-.25.21,0,.33.32.41.54.53s.43.36.73.18c.08,0,.2-.17.09-.24C91.19,79.78,90.79,79.56,90.45,79.36Z"/><path class="cls-8" d="M53.25,70.49a5.58,5.58,0,0,1,2.09,1c0,1.92,0,1.92-1.91,1.92-.88,0-1.77,0-2.66,0a1.54,1.54,0,0,1-1.6-.78c-.24-.39-.54-.73-.82-1.1,0-.32.24-.37.51-.36s.69,0,1,0A9.43,9.43,0,0,0,52.55,71c.3,0,.68.07.64-.44Z"/><path class="cls-10" d="M56,93.45c.57.16.57-.24.64-.64s.07-.78-.47-.76-.52-.4-.5-.79c0-.59.43-.42.76-.39a4.3,4.3,0,0,1,.47.09c1.6.29,1.6.29,1.34,1.87-.21,1.26-.45,2.53-.62,3.8-.08.52-.27.69-.79.55a6.75,6.75,0,0,0-1.26-.2c-.6,0-.71-.29-.59-.87.09-.42.27-.5.58-.38.58.23.59-.17.69-.54s0-.62-.43-.62-.58-.16-.41-.55S55.3,93.17,56,93.45Z"/><path class="cls-10" d="M32,54.86c-.31.78.31.66.62.77s.7.11.71-.43.3-.57.75-.48.58.29.42.76A7,7,0,0,0,34.2,57c-.05.48-.25.58-.68.48-1.65-.38-3.29-.76-5-1.09-.48-.09-.47-.31-.39-.66s.24-.94.31-1.41.13-.7.64-.55.83.11.55.73c-.18.42.11.51.47.62s.7.06.73-.4c0-.65.44-.34.73-.32S32.19,54.54,32,54.86Z"/><path class="cls-10" d="M30.37,68.15c-.19-.47-.08-.65.43-.78s.58.13.68.54c.18.69.66.11,1,.15s.48-.24.35-.53c-.29-.63,0-.77.56-.87s.57.35.61.68c.09.63.58,1.37.25,1.85s-1.18.35-1.79.5c-1.2.28-2.42.48-3.63.74-.34.08-.47,0-.52-.33s-.21-.94-.28-1.41-.41-.78.32-.9c.52-.08.83,0,.83.58,0,.45.31.34.57.24S30.48,68.69,30.37,68.15Z"/><path class="cls-10" d="M65.23,92.65c-.67.21-.53-.35-.65-.7-.17-.52.2-.52.51-.56s.69,0,1-.1c1.16-.15,1.16-.15,1.28,1,.16,1.44.32,2.88.5,4.31.07.53,0,.8-.64.78-.4,0-.8.12-1.2.13s-.74.26-.79-.42,0-.8.59-.77c.37,0,.46-.25.34-.55s.09-.78-.45-.64-.64-.21-.73-.63.25-.5.56-.53c.7-.07.32-.57.32-.86S65.78,92.32,65.23,92.65Z"/><path class="cls-10" d="M81.17,33.1a.72.72,0,0,1-1,.65c-.34-.22-.52-.15-.66.2s-.56.58,0,.83c.41.18.47.39.22.78s-.4.54-.78.23c-.56-.44-.59.17-.78.41s-.39.62.12.8.47.52.23,1-.6.23-.87.05c-.56-.36-1.44-.52-1.6-1.09s.53-1.1.85-1.66c.55-1,1.14-1.93,1.68-2.92.27-.5.52-.73,1.06-.29a11,11,0,0,0,1.24.74C81,32.88,81.19,32.91,81.17,33.1Z"/><path class="cls-10" d="M82.11,90.1a8.12,8.12,0,0,0-.6-.81c-.18-.19-.36,0-.47.15-.41.37-.57.06-.81-.22s-.2-.54.15-.74c.65-.39,0-.66-.12-1s-.4-.49-.72-.15-.62.32-.93-.12-.16-.64.22-.86a4.49,4.49,0,0,0,.52-.37c1.2-.84,1.19-.84,2.07.39s1.58,2.23,2.39,3.33c.23.32.27.51-.11.74a9.8,9.8,0,0,0-1.18.85c-.4.34-.67.34-1-.15-.21-.34-.28-.54.11-.75A2.66,2.66,0,0,0,82.11,90.1Z"/><path class="cls-10" d="M93.49,46.33c.6,1.17.6,1.17-.87,2.37.21.16.41,0,.59,0,1.28-.28,1.28-.29,1.82,1-1.06.16-2.1.37-3.15.46a6.82,6.82,0,0,0-2.47.88c-.43.21-.58,0-.61-.31s-.75-.74-.1-1C90.62,49.07,91.91,47.56,93.49,46.33Z"/><path class="cls-10" d="M97.33,59.25c.07.56.16,1.07-.73,1-.35,0-.48-.13-.45-.46.06-.55-.24-.58-.69-.56s-.66.17-.51.61-.2.47-.48.5-.65.18-.64-.31c0-.65-.37-.66-.84-.57a7,7,0,0,1-.8.1c-1,.09-1.28-.22-1.16-1.22,0-.35.28-.26.47-.28l5.26-.55c.29,0,.38,0,.4.33C97.2,58.29,97.27,58.77,97.33,59.25Z"/><path class="cls-10" d="M87.5,87c0,.1-.06.16-.1.19-.75.7-1.46,1.43-2.26,2.06-.34.27-.46-.31-.71-.46s-.25-.34,0-.5c.49-.31.32-.57,0-.91-.86-.89-1.64-1.85-2.51-2.72-.49-.48-.13-.69.17-.92s.48-.78,1-.18c.83,1,1.75,1.9,2.6,2.86.27.3.46.38.75,0,.1-.12.22-.36.44-.15S87.3,86.81,87.5,87Z"/><path class="cls-10" d="M37,38.83c.7-.73,1.34-1.42,2-2.09.18-.19.39-.56.67-.12.18.26.84.45.24.91-.34.26-.25.45,0,.7.92.9,1.79,1.85,2.73,2.73.42.38.31.62-.06.86s-.49.94-1.09.27c-.87-1-1.8-1.85-2.71-2.76-.12-.12-.3-.41-.44-.23C37.62,39.93,37.32,39.19,37,38.83Z"/><path class="cls-10" d="M90.72,44c0-.09-.11-.18-.15-.27s-.38-.45,0-.57.69-.44,1,0c.46.75.91,1.51,1.36,2.26.25.4-.14.45-.34.55s-.5.5-.7,0c-.27-.64-.6-.37-1-.15-1,.6-2.12,1.16-3.14,1.8-.59.38-.68,0-.85-.39s-.64-.65.06-1c1.12-.57,2.2-1.23,3.29-1.86C90.45,44.29,90.68,44.24,90.72,44Z"/><path class="cls-6" d="M68.35,76.3a3.57,3.57,0,0,1-1.44.37H63.76a2.64,2.64,0,0,1-1.32-.33l-1.47-1c-.33-.64-1-1.09-1-1.92,1.32.44,2.66.85,4,1.32s2.73.85,4.1,1.24C68.22,76.06,68.37,76.08,68.35,76.3Z"/><path class="cls-6" d="M47.68,66.72a37,37,0,0,0,5.18,3.41c.16.1.36.13.39.36l-.06.08H47.73a8.54,8.54,0,0,1-.12-2.62C47.6,67.55,47.39,67.11,47.68,66.72Z"/><path class="cls-10" d="M57,28.24c.66-.19.85.22.93.74l.54,3.41c0,.28.06.58.47.42.68-.26.58.31.67.65s-.21.51-.53.57c-2,.34-1.95.34-2.22-1.65-.15-1.15-.28-2.3-.52-3.42C56.23,28.28,56.35,28,57,28.24Z"/><path class="cls-10" d="M35,71.18c.09.34-.2.31-.38.37-1.67.5-3.34,1-5,1.51-.66.21-.52-.34-.66-.62-.29-.57-.17-.84.51-1,1.41-.35,2.78-.82,4.16-1.23C34.54,69.91,34.88,70.16,35,71.18Z"/><path class="cls-10" d="M90.36,41.38c0,.25-.18.32-.3.42-1.32,1.09-2.67,2.15-4,3.28-.5.44-.65,0-.82-.24s-.83-.49-.19-1c1.28-1,2.52-2.08,3.79-3.11.18-.16.37-.54.63-.34A6,6,0,0,1,90.36,41.38Z"/><path class="cls-10" d="M47.37,87.38c-.08.12-.16.22-.24.33-1,1.42-2,2.81-2.89,4.26-.34.54-.6.26-.87,0s-.93-.25-.46-.9c1-1.4,1.94-2.83,2.92-4.24.1-.14.16-.48.45-.29A4.16,4.16,0,0,1,47.37,87.38Z"/><path class="cls-10" d="M45.05,39.51a2.84,2.84,0,0,1-.93.83c-.31.2-.4-.18-.53-.33-1.08-1.27-2.12-2.58-3.21-3.84-.34-.39-.23-.63.14-.78s.51-1,1.06-.27c1,1.25,2.06,2.48,3.08,3.73A5.49,5.49,0,0,1,45.05,39.51Z"/><path class="cls-10" d="M71.26,35.14c-.94,0-1.28-.5-1-1.37.49-1.47,1-2.92,1.45-4.41.17-.6.48-.47.8-.29s1,0,.72.79c-.57,1.6-1.09,3.23-1.63,4.85C71.55,34.89,71.53,35.13,71.26,35.14Z"/><path class="cls-11" d="M77.27,59.7c-.23.1-.15.31-.15.48,0,1.87,0,3.73,0,5.6a1,1,0,0,0-.09.62c0,3.3,0,6.59-.08,9.89h0l0,0,0-15.45v-1.2C77,59.58,77.15,59.47,77.27,59.7Z"/><path class="cls-12" d="M47.73,70.56h5.46c0,.51-.34.41-.64.44l-4.63,0Z"/><path class="cls-13" d="M31.46,66.17l-.68-.06c.75.06,1.46-.39,2.22-.12.33.11.54-.09.53-.49s-.14-.56-.53-.52a2.34,2.34,0,0,1-1.41-.07l1.2-.06c1-.06,1-.06.93.92,0,.32-.1.35-.34.35Z"/><path class="cls-9" d="M58.36,48.89a11.18,11.18,0,0,1-2.52.09c-1.19.07-2.39.11-3.59.16.15-.4.49-.24.76-.24C54.79,48.88,56.58,48.89,58.36,48.89Z"/><path class="cls-13" d="M73.65,78.62l5.39,0s0,.07,0,.07A23.52,23.52,0,0,1,73.65,78.62Z"/><path class="cls-13" d="M47.92,71l4.63,0a9.43,9.43,0,0,1-2.65.15c-.35,0-.7,0-1,0s-.49,0-.51.36Z"/><path class="cls-9" d="M62.28,49.54l.41-.44c-.81-.3-1.7.13-2.5-.22.77,0,1.54,0,2.31,0,.22,0,.59-.13.62.17s-.28.46-.6.48Z"/><path class="cls-13" d="M33.55,62.76l-3.22,0c.91-.07,1.81-.15,2.71-.19C33.2,62.58,33.48,62.4,33.55,62.76Z"/><path class="cls-13" d="M61,75.37l1.47,1c-.2,0-.43,0-.56.2A3,3,0,0,1,61,75.37Z"/><path class="cls-12" d="M91.31,73a3.29,3.29,0,0,1,1.36.58,7,7,0,0,1-2-.44C90.89,73.05,91.14,73.19,91.31,73Z"/><path class="cls-13" d="M65.17,30.8c0-1,0-2,0-3.06A6.59,6.59,0,0,1,65.17,30.8Z"/><path class="cls-12" d="M90.83,74.74a5.32,5.32,0,0,1,1.37.78,5.53,5.53,0,0,1-1.69-.63Z"/><path class="cls-13" d="M63.76,28.71a7.8,7.8,0,0,1,.07,2.41s0,0-.06,0a.1.1,0,0,1-.07,0Z"/><path class="cls-13" d="M96.44,64.85c-.52.4-1.14.06-1.69.21C95.27,64.6,95.88,65,96.44,64.85Z"/><path class="cls-9" d="M61,50.51a2.7,2.7,0,0,1,.93-.67A.79.79,0,0,1,61,50.51Z"/><path class="cls-9" d="M59.67,47.29c-.23-.25-.14-.67-.48-.85C59.68,46.38,59.68,46.38,59.67,47.29Z"/><path class="cls-9" d="M61.13,51.93a2.24,2.24,0,0,1-.33-1.1C61.27,51.09,61.22,51.5,61.13,51.93Z"/><path class="cls-13" d="M33.53,63.91V62.76A1.11,1.11,0,0,1,33.53,63.91Z"/><path class="cls-13" d="M94.75,65.35a1,1,0,0,1,0,1A1.92,1.92,0,0,1,94.75,65.35Z"/><path class="cls-9" d="M58.68,48.08a1.37,1.37,0,0,1-.27.75C58.42,48.55,58.23,48.2,58.68,48.08Z"/><path class="cls-13" d="M64.83,27.74c0,.14,0,.37-.12.39s-.16-.24-.18-.39Z"/><path class="cls-9" d="M62.26,54c-.25,0-.35-.15-.5-.28C62,53.73,62.22,53.7,62.26,54Z"/><path class="cls-9" d="M61.92,49.84a.48.48,0,0,1,.34-.28A.27.27,0,0,1,61.92,49.84Z"/><path class="cls-9" d="M59.13,46.64,59,47Z"/><path class="cls-9" d="M61.29,52.43l-.1-.3Z"/><path class="cls-9" d="M58.82,47.61l-.11.31A.31.31,0,0,1,58.82,47.61Z"/><path class="cls-9" d="M60,48.28a.36.36,0,0,1-.12-.35A.31.31,0,0,1,60,48.28Z"/><path class="cls-9" d="M60.8,50.83c-.12-.06-.14-.11,0-.15A.76.76,0,0,1,60.8,50.83Z"/><path class="cls-9" d="M51.92,49.16l-.08,0-.07,0Q51.85,49.06,51.92,49.16Z"/><path class="cls-9" d="M59,47.29l-.09.15Z"/><path class="cls-9" d="M59.81,47.8l-.08-.19Z"/><path class="cls-2" d="M27.24,29a8.78,8.78,0,0,0,2.36.84,1.6,1.6,0,0,1,.77.41.69.69,0,0,1,.17.74c-.19.33-.4-.05-.6-.1-.6-.14-1.19-.3-1.79-.46A1.09,1.09,0,0,1,27.24,29Z"/><path class="cls-2" d="M20.42,44.15c-.13.22-.12.64-.55.52a10.5,10.5,0,0,1-1.58-.54.68.68,0,0,1-.35-.89c.17-.36.46,0,.68.07.48.14,1,.31,1.43.48C20.22,43.85,20.44,43.87,20.42,44.15Z"/><path class="cls-2" d="M111,65l-2.47.41c0-1.07.7-1,1.33-1.18S110.76,64.42,111,65Z"/><path class="cls-2" d="M108.2,80.84c-.16.5-.13,1-.65,1.19-.35.09-.65-.18-.85-.49s-.27-.6.26-.63Z"/><path class="cls-2" d="M21,86.43c.41-.43.8-.86,1.21-1.27.13-.13.27-.43.49-.14s.44.36.33.68A1.48,1.48,0,0,1,21,86.43Z"/><path class="cls-2" d="M55.51,15.06l.69,1.52c.08.17.34.36.06.54a.72.72,0,0,1-.76.07A1.34,1.34,0,0,1,55.51,15.06Z"/><path class="cls-2" d="M97.06,97.09c-.63-.31-1.21-.57-1.78-.87-.17-.08-.51-.14-.37-.41s.32-.6.7-.58A1.86,1.86,0,0,1,97.06,97.09Z"/><path class="cls-2" d="M78.82,105.82c.43-.25.75-.62,1.19-.18s1.09.58.93,1.35c-.07.3-.15.61-.55.22S79.4,106.33,78.82,105.82Z"/><path class="cls-3" d="M59.35,71.25A28.31,28.31,0,0,1,55.65,69a.5.5,0,0,1-.22-.41c0-.91,0-1.82,0-2.73a12,12,0,0,1,.45-3.73,2.56,2.56,0,0,1,3.12-2c.41.25.29.66.29,1C59.35,64.56,59.35,67.91,59.35,71.25Z"/><path class="cls-8" d="M59,60.2a2.56,2.56,0,0,0-3.12,2,12,12,0,0,0-.45,3.73c0,.91,0,1.82,0,2.73a3.89,3.89,0,0,1-1.92-1.29c0-1.52,0-3,0-4.55l-.16-.33a6.31,6.31,0,0,1,.5-2.71c.34-.81.8-1.49,1.76-1.57.76-.07,1.5-.51,2.3,0A1.93,1.93,0,0,1,59,60.2Z"/><path class="cls-10" d="M71.27,76.27a5.41,5.41,0,0,1-1.73-.69,10.07,10.07,0,0,0,1.62-1.83A10.63,10.63,0,0,1,71.27,76.27Z"/><path class="cls-10" d="M53.23,54.5a1.82,1.82,0,0,1,.85,1.11l-.22.2c-.27.25-.44.83-.84.62s-.2-.77-.09-1.09S52.88,54.68,53.23,54.5Z"/><path class="cls-14" d="M53.36,62.45l.16.33c-.26.21-.13.49-.13.74,0,1.26,0,2.52,0,3.77-.06-.09-.12-.17-.17-.26,0-1.25,0-2.5,0-3.75C53.23,63,53.13,62.69,53.36,62.45Z"/><path class="cls-15" d="M71.27,76.27a10.63,10.63,0,0,0-.11-2.52l.32-.5c-.26,1,0,2-.13,3A.11.11,0,0,1,71.27,76.27Z"/><path class="cls-13" d="M75.46,77.32a7.8,7.8,0,0,1,2,.52c.38.19.8,0,1.21.25a1.08,1.08,0,0,1-1.12.16,5.2,5.2,0,0,0-1.86-.32c-.16,0-.2-.15-.21-.3S75.48,77.42,75.46,77.32Z"/><path class="cls-15" d="M53.35,67.29c0-1.25,0-2.51,0-3.77,0-.25-.13-.53.13-.74,0,1.51,0,3,0,4.55Z"/><path class="cls-15" d="M76.91,76.29c0-3.3,0-6.59.08-9.89a1,1,0,0,1,.09-.62c0,3.32,0,6.65,0,10C77.1,75.93,77.23,76.2,76.91,76.29Z"/><path class="cls-11" d="M63.76,76.66h3.15l-.13.12H64Z"/><path class="cls-15" d="M64,76.79h2.81A4.11,4.11,0,0,1,64,76.79Z"/><path class="cls-12" d="M72.19,92.46c-.19-.32-.78-.36-.6-.88a.36.36,0,0,1,.55-.13A.62.62,0,0,1,72.19,92.46Z"/><path class="cls-12" d="M72.66,94.41c.34.22.61.48.47.91a.24.24,0,0,1-.4.1A.69.69,0,0,1,72.66,94.41Z"/><path class="cls-3" d="M41.17,87.83l.21-.2c.14.15,0,.27-.05.38Z"/><path class="cls-12" d="M78.91,92.1c0,.25-.14.29-.26.24-.39-.15-.48-.53-.58-.88,0-.13.08-.32.2-.26C78.66,91.39,78.67,91.85,78.91,92.1Z"/><path class="cls-12" d="M92.09,68.6c1.16.22,2.32.43,3.48.66.16,0,.32.12.27.32s-.21.15-.33.13L92,69.07c-.16,0-.33-.1-.27-.31S91.93,68.61,92.09,68.6Z"/><path class="cls-12" d="M95.1,54.06c.17,0,.37-.08.43.14s-.11.28-.27.33l-3.41.95c-.15,0-.35.07-.41-.14s.11-.27.27-.32Z"/><path class="cls-12" d="M52.13,94.93c-.28-.08-.39-.22-.34-.38.11-.33.08-.77.5-.91a.17.17,0,0,1,.22.23C52.4,94.23,52.25,94.58,52.13,94.93Z"/><path class="cls-12" d="M82.18,36.5c.29-.32.41-.75.79-.92.12,0,.26.19.18.35-.16.32-.31.69-.71.78C82.32,36.74,82.21,36.63,82.18,36.5Z"/><path class="cls-12" d="M44.78,33.55c.2,0,.27.17.35.3l1.65,2.93c.09.16.25.35,0,.49s-.33-.07-.42-.23c-.57-1-1.14-2-1.7-3C44.59,33.88,44.43,33.65,44.78,33.55Z"/><path class="cls-3" d="M75,33c-.07.13,0,.31-.25.36a.57.57,0,0,1,.09-.52Z"/><path class="cls-12" d="M37.16,41.75l1.16.8c.19.13.28.24.09.44s-.29,0-.4-.07l-1-1.05Z"/><path class="cls-12" d="M53.83,30.68c.21.54.43,1.08.65,1.62.07.18,0,.32-.16.38s-.28-.07-.31-.25c-.09-.57-.19-1.14-.28-1.72Z"/><path class="cls-12" d="M90.45,79.36c.34.2.74.42,1.11.68.11.07,0,.19-.09.24-.3.18-.51-.06-.73-.18s-.52-.2-.54-.53C90.19,79.45,90.26,79.38,90.45,79.36Z"/></g></g></svg>